<?xml version="1.0" encoding="utf-8" standalone="no"?>
<!DOCTYPE svg PUBLIC "-//W3C//DTD SVG 1.1//EN"
  "http://www.w3.org/Graphics/SVG/1.1/DTD/svg11.dtd">
<svg xmlns:xlink="http://www.w3.org/1999/xlink" width="728.39952pt" height="447.625635pt" viewBox="0 0 728.39952 447.625635" xmlns="http://www.w3.org/2000/svg" version="1.1">
 <metadata>
  <rdf:RDF xmlns:dc="http://purl.org/dc/elements/1.1/" xmlns:cc="http://creativecommons.org/ns#" xmlns:rdf="http://www.w3.org/1999/02/22-rdf-syntax-ns#">
   <cc:Work>
    <dc:type rdf:resource="http://purl.org/dc/dcmitype/StillImage"/>
    <dc:date>2026-10-02T03:01:16.201298</dc:date>
    <dc:format>image/svg+xml</dc:format>
    <dc:creator>
     <cc:Agent>
      <dc:title>Matplotlib v3.11.2, https://matplotlib.org/</dc:title>
     </cc:Agent>
    </dc:creator>
   </cc:Work>
  </rdf:RDF>
 </metadata>
 <defs>
  <style type="text/css">*{stroke-linejoin: round; stroke-linecap: butt}</style>
 </defs>
 <g id="figure_1">
  <g id="patch_1">
   <path d="M 0 447.625635
L 728.39952 447.625635
L 728.39952 -0
L 0 -0
z
" style="fill: #ffffff"/>
  </g>
  <g id="axes_1">
   <g id="patch_2">
    <path d="M 47.2875 140.400257
L 721.19952 140.400257
L 721.19952 26.201496
L 47.2875 26.201496
z
" style="fill: #ffffff"/>
   </g>
   <g id="matplotlib.axis_1">
    <g id="xtick_1">
     <g id="line2d_1">
      <defs>
       <path id="m89553a92df" d="M 0 0
L 0 3.5
" style="stroke: #000000; stroke-width: 0.8"/>
      </defs>
      <g>
       <use xlink:href="#m89553a92df" x="59.928677" y="140.400257" style="stroke: #000000; stroke-width: 0.8"/>
      </g>
     </g>
    </g>
    <g id="xtick_2">
     <g id="line2d_2">
      <g>
       <use xlink:href="#m89553a92df" x="154.619139" y="140.400257" style="stroke: #000000; stroke-width: 0.8"/>
      </g>
     </g>
    </g>
    <g id="xtick_3">
     <g id="line2d_3">
      <g>
       <use xlink:href="#m89553a92df" x="249.309601" y="140.400257" style="stroke: #000000; stroke-width: 0.8"/>
      </g>
     </g>
    </g>
    <g id="xtick_4">
     <g id="line2d_4">
      <g>
       <use xlink:href="#m89553a92df" x="344.000064" y="140.400257" style="stroke: #000000; stroke-width: 0.8"/>
      </g>
     </g>
    </g>
    <g id="xtick_5">
     <g id="line2d_5">
      <g>
       <use xlink:href="#m89553a92df" x="438.690526" y="140.400257" style="stroke: #000000; stroke-width: 0.8"/>
      </g>
     </g>
    </g>
    <g id="xtick_6">
     <g id="line2d_6">
      <g>
       <use xlink:href="#m89553a92df" x="533.380988" y="140.400257" style="stroke: #000000; stroke-width: 0.8"/>
      </g>
     </g>
    </g>
    <g id="xtick_7">
     <g id="line2d_7">
      <g>
       <use xlink:href="#m89553a92df" x="628.07145" y="140.400257" style="stroke: #000000; stroke-width: 0.8"/>
      </g>
     </g>
    </g>
   </g>
   <g id="matplotlib.axis_2">
    <g id="ytick_1">
     <g id="line2d_8">
      <defs>
       <path id="m166a8c9874" d="M 0 0
L -3.5 0
" style="stroke: #000000; stroke-width: 0.8"/>
      </defs>
      <g>
       <use xlink:href="#m166a8c9874" x="47.2875" y="132.879034" style="stroke: #000000; stroke-width: 0.8"/>
      </g>
     </g>
     <g id="text_1">
      <!-- 0 -->
      <g transform="translate(33.925 136.677862) scale(0.1 -0.1)">
       <defs>
        <path id="DejaVuSans-13" d="M 2034 4250
Q 1547 4250 1301 3770
Q 1056 3291 1056 2328
Q 1056 1369 1301 889
Q 1547 409 2034 409
Q 2525 409 2770 889
Q 3016 1369 3016 2328
Q 3016 3291 2770 3770
Q 2525 4250 2034 4250
z
M 2034 4750
Q 2819 4750 3233 4129
Q 3647 3509 3647 2328
Q 3647 1150 3233 529
Q 2819 -91 2034 -91
Q 1250 -91 836 529
Q 422 1150 422 2328
Q 422 3509 836 4129
Q 1250 4750 2034 4750
z
" transform="scale(0.015625)"/>
       </defs>
       <use xlink:href="#DejaVuSans-13"/>
      </g>
     </g>
    </g>
    <g id="ytick_2">
     <g id="line2d_9">
      <g>
       <use xlink:href="#m166a8c9874" x="47.2875" y="107.844326" style="stroke: #000000; stroke-width: 0.8"/>
      </g>
     </g>
     <g id="text_2">
      <!-- 25 -->
      <g transform="translate(27.5625 111.643154) scale(0.1 -0.1)">
       <defs>
        <path id="DejaVuSans-15" d="M 1228 531
L 3431 531
L 3431 0
L 469 0
L 469 531
Q 828 903 1448 1529
Q 2069 2156 2228 2338
Q 2531 2678 2651 2914
Q 2772 3150 2772 3378
Q 2772 3750 2511 3984
Q 2250 4219 1831 4219
Q 1534 4219 1204 4116
Q 875 4013 500 3803
L 500 4441
Q 881 4594 1212 4672
Q 1544 4750 1819 4750
Q 2544 4750 2975 4387
Q 3406 4025 3406 3419
Q 3406 3131 3298 2873
Q 3191 2616 2906 2266
Q 2828 2175 2409 1742
Q 1991 1309 1228 531
z
" transform="scale(0.015625)"/>
        <path id="DejaVuSans-18" d="M 691 4666
L 3169 4666
L 3169 4134
L 1269 4134
L 1269 2991
Q 1406 3038 1543 3061
Q 1681 3084 1819 3084
Q 2600 3084 3056 2656
Q 3513 2228 3513 1497
Q 3513 744 3044 326
Q 2575 -91 1722 -91
Q 1428 -91 1123 -41
Q 819 9 494 109
L 494 744
Q 775 591 1075 516
Q 1375 441 1709 441
Q 2250 441 2565 725
Q 2881 1009 2881 1497
Q 2881 1984 2565 2268
Q 2250 2553 1709 2553
Q 1456 2553 1204 2497
Q 953 2441 691 2322
L 691 4666
z
" transform="scale(0.015625)"/>
       </defs>
       <use xlink:href="#DejaVuSans-15"/>
       <use xlink:href="#DejaVuSans-18" transform="translate(63.625 0)"/>
      </g>
     </g>
    </g>
    <g id="ytick_3">
     <g id="line2d_10">
      <g>
       <use xlink:href="#m166a8c9874" x="47.2875" y="82.809618" style="stroke: #000000; stroke-width: 0.8"/>
      </g>
     </g>
     <g id="text_3">
      <!-- 50 -->
      <g transform="translate(27.5625 86.608446) scale(0.1 -0.1)">
       <use xlink:href="#DejaVuSans-18"/>
       <use xlink:href="#DejaVuSans-13" transform="translate(63.625 0)"/>
      </g>
     </g>
    </g>
    <g id="ytick_4">
     <g id="line2d_11">
      <g>
       <use xlink:href="#m166a8c9874" x="47.2875" y="57.77491" style="stroke: #000000; stroke-width: 0.8"/>
      </g>
     </g>
     <g id="text_4">
      <!-- 75 -->
      <g transform="translate(27.5625 61.573738) scale(0.1 -0.1)">
       <defs>
        <path id="DejaVuSans-1a" d="M 525 4666
L 3525 4666
L 3525 4397
L 1831 0
L 1172 0
L 2766 4134
L 525 4134
L 525 4666
z
" transform="scale(0.015625)"/>
       </defs>
       <use xlink:href="#DejaVuSans-1a"/>
       <use xlink:href="#DejaVuSans-18" transform="translate(63.625 0)"/>
      </g>
     </g>
    </g>
    <g id="ytick_5">
     <g id="line2d_12">
      <g>
       <use xlink:href="#m166a8c9874" x="47.2875" y="32.740202" style="stroke: #000000; stroke-width: 0.8"/>
      </g>
     </g>
     <g id="text_5">
      <!-- 100 -->
      <g transform="translate(21.2 36.53903) scale(0.1 -0.1)">
       <defs>
        <path id="DejaVuSans-14" d="M 794 531
L 1825 531
L 1825 4091
L 703 3866
L 703 4441
L 1819 4666
L 2450 4666
L 2450 531
L 3481 531
L 3481 0
L 794 0
L 794 531
z
" transform="scale(0.015625)"/>
       </defs>
       <use xlink:href="#DejaVuSans-14"/>
       <use xlink:href="#DejaVuSans-13" transform="translate(63.625 0)"/>
       <use xlink:href="#DejaVuSans-13" transform="translate(127.25 0)"/>
      </g>
     </g>
    </g>
    <g id="text_6">
     <!-- Component z -->
     <g transform="translate(14.797656 116.543064) rotate(-90) scale(0.1 -0.1)">
      <defs>
       <path id="DejaVuSans-26" d="M 4122 4306
L 4122 3641
Q 3803 3938 3442 4084
Q 3081 4231 2675 4231
Q 1875 4231 1450 3742
Q 1025 3253 1025 2328
Q 1025 1406 1450 917
Q 1875 428 2675 428
Q 3081 428 3442 575
Q 3803 722 4122 1019
L 4122 359
Q 3791 134 3420 21
Q 3050 -91 2638 -91
Q 1578 -91 968 557
Q 359 1206 359 2328
Q 359 3453 968 4101
Q 1578 4750 2638 4750
Q 3056 4750 3426 4639
Q 3797 4528 4122 4306
z
" transform="scale(0.015625)"/>
       <path id="DejaVuSans-52" d="M 1959 3097
Q 1497 3097 1228 2736
Q 959 2375 959 1747
Q 959 1119 1226 758
Q 1494 397 1959 397
Q 2419 397 2687 759
Q 2956 1122 2956 1747
Q 2956 2369 2687 2733
Q 2419 3097 1959 3097
z
M 1959 3584
Q 2709 3584 3137 3096
Q 3566 2609 3566 1747
Q 3566 888 3137 398
Q 2709 -91 1959 -91
Q 1206 -91 779 398
Q 353 888 353 1747
Q 353 2609 779 3096
Q 1206 3584 1959 3584
z
" transform="scale(0.015625)"/>
       <path id="DejaVuSans-50" d="M 3328 2828
Q 3544 3216 3844 3400
Q 4144 3584 4550 3584
Q 5097 3584 5394 3201
Q 5691 2819 5691 2113
L 5691 0
L 5113 0
L 5113 2094
Q 5113 2597 4934 2840
Q 4756 3084 4391 3084
Q 3944 3084 3684 2787
Q 3425 2491 3425 1978
L 3425 0
L 2847 0
L 2847 2094
Q 2847 2600 2669 2842
Q 2491 3084 2119 3084
Q 1678 3084 1418 2786
Q 1159 2488 1159 1978
L 1159 0
L 581 0
L 581 3500
L 1159 3500
L 1159 2956
Q 1356 3278 1631 3431
Q 1906 3584 2284 3584
Q 2666 3584 2933 3390
Q 3200 3197 3328 2828
z
" transform="scale(0.015625)"/>
       <path id="DejaVuSans-53" d="M 1159 525
L 1159 -1331
L 581 -1331
L 581 3500
L 1159 3500
L 1159 2969
Q 1341 3281 1617 3432
Q 1894 3584 2278 3584
Q 2916 3584 3314 3078
Q 3713 2572 3713 1747
Q 3713 922 3314 415
Q 2916 -91 2278 -91
Q 1894 -91 1617 61
Q 1341 213 1159 525
z
M 3116 1747
Q 3116 2381 2855 2742
Q 2594 3103 2138 3103
Q 1681 3103 1420 2742
Q 1159 2381 1159 1747
Q 1159 1113 1420 752
Q 1681 391 2138 391
Q 2594 391 2855 752
Q 3116 1113 3116 1747
z
" transform="scale(0.015625)"/>
       <path id="DejaVuSans-51" d="M 3513 2113
L 3513 0
L 2938 0
L 2938 2094
Q 2938 2591 2744 2837
Q 2550 3084 2163 3084
Q 1697 3084 1428 2787
Q 1159 2491 1159 1978
L 1159 0
L 581 0
L 581 3500
L 1159 3500
L 1159 2956
Q 1366 3272 1645 3428
Q 1925 3584 2291 3584
Q 2894 3584 3203 3211
Q 3513 2838 3513 2113
z
" transform="scale(0.015625)"/>
       <path id="DejaVuSans-48" d="M 3597 1894
L 3597 1613
L 953 1613
Q 991 1019 1311 708
Q 1631 397 2203 397
Q 2534 397 2845 478
Q 3156 559 3463 722
L 3463 178
Q 3153 47 2828 -22
Q 2503 -91 2169 -91
Q 1331 -91 842 396
Q 353 884 353 1716
Q 353 2575 817 3079
Q 1281 3584 2069 3584
Q 2775 3584 3186 3129
Q 3597 2675 3597 1894
z
M 3022 2063
Q 3016 2534 2758 2815
Q 2500 3097 2075 3097
Q 1594 3097 1305 2825
Q 1016 2553 972 2059
L 3022 2063
z
" transform="scale(0.015625)"/>
       <path id="DejaVuSans-57" d="M 1172 4494
L 1172 3500
L 2356 3500
L 2356 3053
L 1172 3053
L 1172 1153
Q 1172 725 1289 603
Q 1406 481 1766 481
L 2356 481
L 2356 0
L 1766 0
Q 1100 0 847 248
Q 594 497 594 1153
L 594 3053
L 172 3053
L 172 3500
L 594 3500
L 594 4494
L 1172 4494
z
" transform="scale(0.015625)"/>
       <path id="DejaVuSans-3" transform="scale(0.015625)"/>
       <path id="DejaVuSans-5d" d="M 353 3500
L 3084 3500
L 3084 2975
L 922 459
L 3084 459
L 3084 0
L 275 0
L 275 525
L 2438 3041
L 353 3041
L 353 3500
z
" transform="scale(0.015625)"/>
      </defs>
      <use xlink:href="#DejaVuSans-26"/>
      <use xlink:href="#DejaVuSans-52" transform="translate(69.828125 0)"/>
      <use xlink:href="#DejaVuSans-50" transform="translate(131.015625 0)"/>
      <use xlink:href="#DejaVuSans-53" transform="translate(228.421875 0)"/>
      <use xlink:href="#DejaVuSans-52" transform="translate(291.90625 0)"/>
      <use xlink:href="#DejaVuSans-51" transform="translate(353.09375 0)"/>
      <use xlink:href="#DejaVuSans-48" transform="translate(416.46875 0)"/>
      <use xlink:href="#DejaVuSans-51" transform="translate(478 0)"/>
      <use xlink:href="#DejaVuSans-57" transform="translate(541.375 0)"/>
      <use xlink:href="#DejaVuSans-3" transform="translate(580.578125 0)"/>
      <use xlink:href="#DejaVuSans-5d" transform="translate(612.359375 0)"/>
     </g>
    </g>
   </g>
   <g id="line2d_13">
    <path d="M 77.919865 133.121503
L 78.866769 133.146966
L 79.813674 133.030179
L 81.707483 133.341732
L 82.654388 133.441532
L 85.495102 133.388982
L 86.442006 133.180684
L 88.335815 133.302206
L 89.28272 132.952788
L 90.229625 133.034418
L 91.176529 132.911409
L 92.123434 132.916511
L 93.070339 133.163447
L 94.017243 133.162854
L 94.964148 132.999755
L 95.911052 132.98435
L 96.857957 133.258596
L 97.804862 133.148966
L 98.751766 133.240378
L 99.698671 133.051977
L 100.645575 133.157447
L 101.59248 133.134109
L 102.539385 133.31934
L 103.486289 133.22976
L 104.433194 132.977844
L 105.380099 132.893947
L 107.273908 133.183735
L 108.220812 133.245673
L 109.167717 133.095463
L 110.114622 133.381822
L 111.061526 133.461734
L 112.008431 133.318887
L 112.955336 132.92038
L 114.849145 133.047305
L 115.796049 132.945522
L 116.742954 133.263527
L 117.689859 133.04287
L 120.530573 133.370476
L 123.371286 132.984274
L 124.318191 133.158533
L 125.265096 133.020587
L 126.212 133.064115
L 127.158905 133.385205
L 128.10581 133.232343
L 130.946523 133.311036
L 131.893428 133.555502
L 133.787237 133.47321
L 135.681047 133.088842
L 136.627951 133.117708
L 137.574856 133.313874
L 140.41557 133.274922
L 141.362474 133.235401
L 142.309379 133.075544
L 143.256284 133.187948
L 144.203188 133.121247
L 145.150093 133.255291
L 146.096997 133.252242
L 147.043902 133.111344
L 147.990807 133.170958
L 149.884616 133.12564
L 153.672234 133.238195
L 154.619139 133.218825
L 155.566044 133.034773
L 157.459853 133.011375
L 158.406757 133.012686
L 161.247471 133.41311
L 164.088185 133.146422
L 165.03509 133.228228
L 166.928899 133.160105
L 167.875804 133.131068
L 168.822708 132.982071
L 169.769613 133.102582
L 172.610327 132.960997
L 173.557231 133.284479
L 174.504136 132.994849
L 175.451041 132.924364
L 177.34485 133.135233
L 179.238659 133.26503
L 180.185564 132.948967
L 181.132468 133.072544
L 184.920087 132.917955
L 185.866992 132.723377
L 187.760801 132.977156
L 188.707705 132.903083
L 189.65461 133.118235
L 190.601515 133.150053
L 191.548419 133.001394
L 192.495324 133.209668
L 193.442229 133.153974
L 194.389133 133.264398
L 195.336038 133.1973
L 196.282942 133.442634
L 198.176752 133.207814
L 200.070561 132.948101
L 204.805084 133.075331
L 208.592702 133.09193
L 209.539607 133.215285
L 211.433416 133.173125
L 214.27413 133.351219
L 215.221035 133.069074
L 218.061749 133.208265
L 219.008653 133.198187
L 219.955558 132.987372
L 220.902463 133.0664
L 222.796272 132.911357
L 225.636986 132.834004
L 227.530795 132.986494
L 228.4777 132.937476
L 229.424604 132.635079
L 231.318413 133.060495
L 233.212223 132.857475
L 236.052937 132.773138
L 237.946746 132.962311
L 238.89365 132.800791
L 239.840555 133.11803
L 240.78746 133.14246
L 241.734364 132.99784
L 242.681269 133.036809
L 243.628174 133.61533
L 244.575078 133.876459
L 246.468887 133.835565
L 247.415792 133.53022
L 248.362697 133.093329
L 250.256506 131.017453
L 252.150315 129.8579
L 254.044124 128.312027
L 255.937934 127.696527
L 256.884838 130.824802
L 257.831743 130.608798
L 259.725552 130.904468
L 261.619361 130.73803
L 262.566266 131.747749
L 265.40698 131.268497
L 266.353884 131.563859
L 267.300789 131.289727
L 268.247694 131.245023
L 269.194598 130.948614
L 270.141503 132.094738
L 272.982217 131.894744
L 273.929121 131.590265
L 275.822931 131.815941
L 276.769835 131.702691
L 277.71674 131.832369
L 278.663645 130.757769
L 279.610549 130.805223
L 280.557454 130.690492
L 281.504358 130.749839
L 287.185786 131.801814
L 288.132691 131.473491
L 289.079595 131.428171
L 290.0265 131.628431
L 290.973405 131.707591
L 291.920309 131.582039
L 292.867214 131.221663
L 294.761023 131.043365
L 295.707928 131.156318
L 296.654832 131.100524
L 297.601737 131.297606
L 298.548642 131.375227
L 299.495546 131.296224
L 300.442451 130.804721
L 301.389356 130.702496
L 304.230069 131.155132
L 305.176974 131.127787
L 306.123879 131.355805
L 308.017688 130.592778
L 308.964592 130.66141
L 309.911497 131.117399
L 310.858402 131.064403
L 311.805306 130.846428
L 312.752211 130.993678
L 313.699116 131.434479
L 314.64602 131.337065
L 316.539829 131.396069
L 317.486734 131.277389
L 318.433639 131.399024
L 319.380543 131.240763
L 320.327448 131.303935
L 321.274353 131.663293
L 323.168162 131.503884
L 324.115066 131.627772
L 325.061971 131.21107
L 326.008876 131.217166
L 326.95578 131.481758
L 327.902685 131.545059
L 328.84959 132.016858
L 330.743399 132.10862
L 331.690303 131.789624
L 332.637208 131.746881
L 337.371731 132.324625
L 338.318636 132.653155
L 339.26554 132.814168
L 342.106254 132.552883
L 343.053159 132.599175
L 344.000064 132.843552
L 344.946968 132.837241
L 345.893873 133.064034
L 346.840777 133.029004
L 347.787682 133.164353
L 348.734587 133.066749
L 350.628396 133.254325
L 351.575301 133.142229
L 353.46911 133.293533
L 355.362919 133.053047
L 357.256728 133.231498
L 358.203633 132.926042
L 361.044347 132.827219
L 364.831965 133.270689
L 365.77887 132.809893
L 366.725774 133.092391
L 368.619584 133.377589
L 370.513393 133.077001
L 371.460298 132.776871
L 372.407202 132.704306
L 373.354107 132.852203
L 374.301011 133.319186
L 375.247916 133.523455
L 378.08863 133.591408
L 379.035535 133.401667
L 380.929344 133.353069
L 381.876248 133.319897
L 383.770058 132.797404
L 386.610772 132.989881
L 387.557676 133.029189
L 388.504581 132.778349
L 389.451485 132.897922
L 390.39839 132.775301
L 391.345295 133.229686
L 393.239104 133.149428
L 394.186009 132.9781
L 395.132913 133.035558
L 397.973627 132.449254
L 398.920532 132.593133
L 399.867436 132.303487
L 400.814341 132.479387
L 401.761246 132.400753
L 402.70815 132.622358
L 403.655055 132.68177
L 405.548864 132.536588
L 406.495769 132.648997
L 407.442673 132.447807
L 408.389578 132.54289
L 409.336483 132.11921
L 411.230292 131.800112
L 412.177196 132.111401
L 413.124101 132.286461
L 414.071006 132.191482
L 415.01791 131.904101
L 415.964815 131.777662
L 416.911719 132.029961
L 417.858624 131.931272
L 420.699338 132.32356
L 421.646243 132.625318
L 423.540052 132.110401
L 424.486956 131.977147
L 425.433861 132.120857
L 426.380766 131.845716
L 427.32767 132.359615
L 428.274575 132.434603
L 429.22148 132.160382
L 431.115289 131.853803
L 432.062193 131.667695
L 433.009098 131.864351
L 433.956003 131.907937
L 435.849812 131.503358
L 436.796717 131.834734
L 439.63743 131.369471
L 440.584335 131.585162
L 441.53124 131.501356
L 443.425049 131.7144
L 446.265763 131.658945
L 447.212667 131.186158
L 448.159572 131.475763
L 449.106477 131.383379
L 450.053381 131.027966
L 451.000286 130.376026
L 451.947191 130.474803
L 454.787904 127.44166
L 455.734809 127.402312
L 456.681714 126.553221
L 457.628618 124.901515
L 458.575523 123.767639
L 459.522428 122.374192
L 460.469332 120.567874
L 461.416237 120.132242
L 462.363141 119.0951
L 464.256951 118.937917
L 465.203855 121.250379
L 466.15076 122.586544
L 467.097664 122.745477
L 468.044569 123.46908
L 469.938378 123.053445
L 470.885283 123.163746
L 471.832188 122.480695
L 472.779092 122.503779
L 473.725997 122.787678
L 474.672901 123.227213
L 475.619806 122.732719
L 477.513615 123.705644
L 478.46052 123.071417
L 479.407425 123.29846
L 480.354329 123.033506
L 481.301234 130.302498
L 482.248138 131.740763
L 483.195043 129.449635
L 484.141948 129.325344
L 485.088852 128.762733
L 486.035757 128.75532
L 486.982662 128.587
L 487.929566 131.972358
L 488.876471 132.130956
L 489.823375 131.56009
L 490.77028 131.332442
L 492.664089 131.424913
L 493.610994 128.355896
L 494.557899 128.370876
L 495.504803 128.670784
L 496.451708 128.558769
L 497.398612 128.697795
L 498.345517 128.580337
L 499.292422 128.644051
L 500.239326 128.499491
L 502.133136 128.42528
L 503.08004 128.26957
L 504.973849 128.400331
L 505.920754 128.557378
L 506.867659 128.851643
L 507.814563 128.958911
L 508.761468 129.48158
L 509.708373 129.590107
L 510.655277 129.45147
L 511.602182 129.109713
L 512.549086 129.800537
L 515.3898 130.249817
L 516.336705 129.824162
L 518.230514 129.338376
L 519.177419 129.429283
L 520.124323 129.63259
L 522.965037 129.810608
L 525.805751 130.394519
L 526.752656 130.802845
L 527.69956 130.56356
L 528.646465 130.595534
L 529.59337 130.859005
L 531.487179 130.955153
L 532.434083 130.727223
L 535.274797 131.508071
L 539.062416 131.592886
L 540.00932 131.390561
L 540.956225 131.736126
L 541.90313 131.911099
L 542.850034 131.968198
L 543.796939 131.904377
L 545.690748 132.434889
L 547.584557 132.543654
L 552.319081 132.572089
L 553.265985 132.478626
L 554.21289 132.551596
L 555.159794 132.212837
L 556.106699 132.489652
L 557.053604 132.888896
L 558.947413 132.767641
L 559.894318 132.80876
L 560.841222 132.667605
L 561.788127 132.912152
L 564.628841 133.002968
L 565.575745 132.918669
L 567.469554 133.17603
L 568.416459 132.855059
L 569.363364 132.682121
L 570.310268 133.127541
L 571.257173 133.264105
L 572.204078 132.999493
L 573.150982 132.910713
L 574.097887 133.198933
L 575.991696 132.831118
L 576.938601 133.042506
L 578.83241 133.201989
L 580.726219 133.048666
L 581.673124 132.866055
L 582.620028 133.043946
L 583.566933 133.376885
L 584.513838 133.313709
L 585.460742 133.052895
L 587.354552 132.976789
L 588.301456 133.147632
L 589.248361 133.093727
L 591.14217 133.318048
L 592.089075 133.327715
L 593.035979 132.990335
L 595.876693 133.12047
L 596.823598 132.882486
L 599.664312 132.696699
L 600.611216 132.704666
L 601.558121 132.899919
L 605.345739 133.227991
L 606.292644 133.071557
L 607.239549 133.343683
L 608.186453 133.292606
L 609.133358 133.468677
L 610.080263 133.160056
L 613.867881 133.08402
L 616.708595 132.927707
L 618.602404 133.078125
L 619.549309 132.89017
L 621.443118 132.814786
L 624.283832 132.390531
L 625.230736 132.284816
L 629.018355 132.463866
L 629.96526 132.397645
L 631.859069 132.611059
L 633.752878 132.632288
L 638.487401 132.463095
L 639.434306 132.392424
L 640.38121 132.668816
L 646.062638 132.630496
L 647.009543 132.826083
L 647.956447 132.606889
L 649.850257 132.639036
L 650.797161 132.59311
L 651.744066 132.217316
L 652.690971 132.573988
L 653.637875 132.607694
L 654.58478 132.499629
L 656.478589 131.547332
L 657.425494 131.048904
L 658.372398 130.223263
L 660.266208 129.212939
L 661.213112 127.815898
L 662.160017 127.028125
L 663.106921 126.89564
L 665.000731 125.761136
L 665.947635 131.948292
L 666.89454 131.63523
L 667.841445 131.661839
L 668.788349 131.345763
L 669.735254 131.458656
L 670.682158 131.355873
L 671.629063 131.574836
L 672.575968 131.372827
L 673.522872 130.637141
L 681.098109 130.308421
L 682.991918 130.50409
L 684.885728 130.486809
L 685.832632 130.749091
L 686.779537 130.800809
L 687.726442 130.605755
L 688.673346 130.678694
L 689.620251 130.578771
L 690.567155 130.715026
L 690.567155 130.715026
" clip-path="url(#p75b31c00cb)" style="fill: none; stroke: #245b86; stroke-width: 1.5; stroke-linecap: square"/>
   </g>
   <g id="line2d_14">
    <path d="M 77.919865 132.445387
L 78.866769 133.963423
L 79.813674 133.196691
L 80.760578 133.825119
L 81.707483 133.431941
L 82.654388 132.665327
L 83.601292 132.304203
L 85.495102 131.154752
L 86.442006 133.2281
L 87.388911 134.006641
L 88.335815 133.68724
L 89.28272 134.117956
L 90.229625 133.524867
L 91.176529 134.476131
L 92.123434 133.760166
L 94.017243 133.888829
L 94.964148 133.471366
L 95.911052 132.595936
L 96.857957 133.536986
L 97.804862 134.284855
L 99.698671 135.209404
L 101.59248 133.875142
L 102.539385 132.940399
L 103.486289 133.183864
L 105.380099 134.793712
L 107.273908 134.140785
L 108.220812 134.844022
L 109.167717 133.922316
L 111.061526 134.59501
L 112.008431 134.610917
L 113.90224 133.956316
L 116.742954 133.488912
L 117.689859 133.960688
L 118.636763 133.018125
L 119.583668 132.440084
L 120.530573 131.446313
L 121.477477 131.821096
L 122.424382 131.68662
L 123.371286 131.802954
L 124.318191 132.367592
L 125.265096 131.827672
L 126.212 131.951652
L 127.158905 133.018827
L 128.10581 133.505824
L 129.052714 134.635097
L 129.999619 135.090194
L 131.893428 135.149685
L 133.787237 134.602273
L 134.734142 134.01291
L 136.627951 133.11975
L 137.574856 133.461152
L 138.52176 134.037895
L 139.468665 134.066503
L 140.41557 134.661072
L 141.362474 133.994783
L 142.309379 133.565123
L 143.256284 132.967208
L 144.203188 132.00053
L 145.150093 131.772317
L 146.096997 131.776349
L 147.043902 131.48094
L 147.990807 130.973868
L 148.937711 131.43644
L 149.884616 132.597059
L 150.83152 132.658452
L 151.778425 132.957463
L 152.72533 133.38569
L 153.672234 132.718994
L 154.619139 133.852347
L 155.566044 133.42834
L 156.512948 133.646122
L 157.459853 133.198821
L 158.406757 133.671213
L 159.353662 133.692391
L 160.300567 134.036736
L 161.247471 134.829695
L 162.194376 134.774514
L 163.141281 134.915543
L 165.03509 133.722745
L 165.981994 133.384286
L 166.928899 133.518078
L 167.875804 133.177822
L 168.822708 133.722335
L 169.769613 132.830387
L 170.716518 132.506245
L 171.663422 131.861977
L 173.557231 132.359872
L 174.504136 131.656237
L 175.451041 130.804388
L 176.397945 129.206846
L 178.291755 129.585119
L 179.238659 130.081833
L 181.132468 131.664475
L 182.079373 133.015483
L 183.026278 133.7813
L 183.973182 133.880985
L 184.920087 133.826819
L 185.866992 133.42298
L 186.813896 134.292552
L 187.760801 134.814263
L 188.707705 133.956658
L 189.65461 134.754886
L 191.548419 134.92521
L 192.495324 134.719411
L 193.442229 135.123846
L 194.389133 133.930864
L 195.336038 133.934664
L 196.282942 133.224377
L 199.123656 132.080096
L 200.070561 132.639633
L 201.017466 133.715465
L 201.96437 133.065868
L 203.858179 132.595861
L 204.805084 132.05116
L 207.645798 132.152577
L 208.592702 132.769697
L 209.539607 134.07675
L 210.486512 134.646673
L 212.380321 134.890881
L 213.327226 134.528138
L 214.27413 134.350709
L 216.167939 133.273639
L 218.061749 132.978939
L 219.008653 133.074035
L 219.955558 133.347237
L 222.796272 133.404236
L 225.636986 131.468042
L 226.58389 131.848863
L 227.530795 131.434163
L 228.4777 131.168458
L 229.424604 131.076853
L 230.371509 131.770661
L 231.318413 131.790774
L 232.265318 132.330219
L 234.159127 131.861461
L 235.106032 131.115915
L 236.052937 130.596008
L 236.999841 131.047624
L 237.946746 131.095398
L 239.840555 131.958627
L 240.78746 132.488226
L 242.681269 133.096835
L 243.628174 134.453416
L 244.575078 133.997695
L 245.521983 132.822489
L 246.468887 131.199881
L 247.415792 130.645184
L 248.362697 129.805992
L 249.309601 129.283202
L 250.256506 129.787374
L 251.203411 129.492596
L 252.150315 129.752932
L 253.09722 129.631357
L 254.044124 128.993202
L 254.991029 127.81525
L 255.937934 126.444902
L 256.884838 124.656237
L 257.831743 122.221944
L 258.778647 120.568241
L 259.725552 119.785849
L 261.619361 115.889771
L 262.566266 118.712503
L 263.513171 123.094331
L 264.460075 124.052255
L 265.40698 124.146409
L 266.353884 125.304038
L 267.300789 125.756333
L 269.194598 125.14048
L 270.141503 124.382785
L 271.088408 123.312498
L 272.035312 124.574157
L 272.982217 124.455875
L 273.929121 124.854931
L 274.876026 124.092056
L 275.822931 123.964162
L 276.769835 126.023502
L 277.71674 126.646915
L 278.663645 124.336924
L 279.610549 125.088786
L 280.557454 126.088444
L 281.504358 128.490145
L 282.451263 129.07547
L 283.398168 131.089796
L 284.345072 132.627824
L 285.291977 131.069854
L 286.238882 130.83244
L 287.185786 130.1059
L 288.132691 130.061435
L 289.079595 130.542353
L 290.0265 131.335055
L 290.973405 133.536384
L 291.920309 134.556345
L 292.867214 134.648698
L 293.814119 133.880006
L 295.707928 134.208925
L 297.601737 134.718268
L 298.548642 134.65598
L 299.495546 134.153979
L 300.442451 132.570919
L 301.389356 131.654226
L 302.33626 130.901615
L 303.283165 130.997658
L 304.230069 131.96067
L 305.176974 132.416087
L 306.123879 133.937142
L 307.070783 134.630654
L 308.017688 135.037137
L 308.964592 135.094804
L 310.858402 133.788943
L 311.805306 134.107361
L 312.752211 134.17394
L 314.64602 133.471523
L 315.592925 132.676192
L 317.486734 132.637956
L 318.433639 132.998004
L 319.380543 132.441262
L 320.327448 132.126472
L 321.274353 132.263006
L 322.221257 131.802358
L 323.168162 131.695133
L 324.115066 131.99775
L 325.061971 132.578511
L 326.95578 133.354989
L 327.902685 133.376889
L 328.84959 133.143008
L 329.796494 133.214173
L 330.743399 133.856089
L 331.690303 133.87625
L 332.637208 133.676859
L 333.584113 133.325614
L 334.531017 133.579339
L 337.371731 134.707859
L 338.318636 134.4216
L 339.26554 134.363493
L 340.212445 134.074157
L 341.15935 134.614483
L 342.106254 134.240568
L 343.053159 133.690076
L 344.000064 133.725335
L 344.946968 133.433998
L 345.893873 133.320713
L 346.840777 132.99132
L 347.787682 133.817493
L 348.734587 134.145201
L 349.681491 134.68003
L 350.628396 134.698051
L 351.575301 134.462131
L 352.522205 134.09281
L 353.46911 134.385626
L 354.416014 134.557643
L 356.309824 133.286438
L 357.256728 133.277503
L 358.203633 133.968531
L 359.150537 133.858497
L 360.097442 134.443599
L 361.991251 134.863286
L 363.885061 134.454754
L 365.77887 134.805695
L 366.725774 134.540487
L 367.672679 134.02153
L 368.619584 133.874162
L 369.566488 134.126905
L 370.513393 134.677016
L 371.460298 134.889813
L 372.407202 134.923759
L 373.354107 133.982366
L 374.301011 133.586119
L 375.247916 133.631948
L 376.194821 133.257933
L 377.141725 132.595403
L 378.08863 132.928221
L 379.982439 132.904978
L 380.929344 132.669448
L 381.876248 132.951731
L 382.823153 133.71221
L 383.770058 133.773862
L 384.716962 133.615239
L 386.610772 132.961932
L 387.557676 132.90405
L 388.504581 133.21685
L 389.451485 133.214547
L 390.39839 132.640972
L 391.345295 132.429862
L 392.292199 132.837442
L 394.186009 133.151948
L 395.132913 132.856081
L 396.079818 132.968873
L 397.026722 132.838339
L 397.973627 132.546327
L 399.867436 133.02914
L 400.814341 133.122166
L 401.761246 133.579069
L 402.70815 133.551833
L 403.655055 133.366785
L 404.601959 133.421138
L 405.548864 133.696197
L 408.389578 133.981491
L 409.336483 133.703448
L 412.177196 133.807653
L 413.124101 133.619538
L 415.01791 133.674858
L 415.964815 133.400282
L 416.911719 132.827154
L 417.858624 132.591848
L 418.805529 132.592569
L 420.699338 132.828484
L 421.646243 133.447584
L 422.593147 133.715302
L 427.32767 133.143932
L 428.274575 133.276294
L 429.22148 132.847038
L 430.168384 132.760328
L 431.115289 132.972947
L 432.062193 133.43506
L 433.009098 133.627658
L 433.956003 134.153014
L 434.902907 134.125877
L 435.849812 133.909735
L 436.796717 133.315451
L 437.743621 132.875777
L 438.690526 133.315736
L 441.53124 132.488701
L 442.478144 132.95533
L 443.425049 132.770378
L 444.371954 133.210413
L 445.318858 132.947524
L 446.265763 133.560888
L 448.159572 133.8139
L 451.000286 132.769523
L 451.947191 132.654598
L 453.841 130.53616
L 454.787904 130.253258
L 455.734809 129.484344
L 456.681714 129.405537
L 457.628618 128.78451
L 458.575523 128.002612
L 459.522428 126.278154
L 460.469332 123.539352
L 462.363141 110.119613
L 463.310046 101.5057
L 464.256951 90.238072
L 466.15076 75.188618
L 467.097664 70.039456
L 468.044569 75.135548
L 468.991474 82.91555
L 469.938378 95.618388
L 470.885283 104.950543
L 471.832188 113.051629
L 472.779092 115.194663
L 474.672901 121.667246
L 475.619806 122.978223
L 477.513615 120.088232
L 478.46052 114.411172
L 479.407425 107.34118
L 480.354329 96.384454
L 482.248138 46.457711
L 483.195043 31.392348
L 484.141948 44.26691
L 486.035757 90.586456
L 486.982662 108.343339
L 487.929566 118.856808
L 488.876471 125.006096
L 489.823375 129.012275
L 490.77028 131.899832
L 491.717185 133.651095
L 492.664089 134.813534
L 493.610994 135.023765
L 494.557899 135.036139
L 495.504803 135.17661
L 497.398612 134.533423
L 498.345517 133.769027
L 499.292422 133.717055
L 500.239326 134.184983
L 501.186231 134.348489
L 503.08004 133.935266
L 504.026945 133.238163
L 504.973849 133.153967
L 505.920754 132.561934
L 506.867659 132.843845
L 507.814563 132.666715
L 509.708373 132.831038
L 510.655277 132.69178
L 511.602182 132.800451
L 512.549086 132.324233
L 514.442896 132.282501
L 515.3898 131.77389
L 516.336705 131.640761
L 518.230514 132.107364
L 519.177419 132.33858
L 521.071228 132.507266
L 522.018133 132.150469
L 522.965037 132.038964
L 527.69956 132.605534
L 530.540274 132.584854
L 534.327893 133.157483
L 535.274797 133.059459
L 536.221702 133.199702
L 537.168607 133.121541
L 538.115511 133.273738
L 539.062416 133.253012
L 540.00932 133.077009
L 541.90313 133.208213
L 542.850034 133.490605
L 544.743844 133.286304
L 545.690748 133.185882
L 547.584557 132.619677
L 551.372176 133.071184
L 552.319081 133.649321
L 553.265985 133.572471
L 555.159794 133.885921
L 556.106699 133.820394
L 559.894318 132.93333
L 562.735031 133.465695
L 563.681936 133.34305
L 564.628841 132.92182
L 565.575745 133.122383
L 566.52265 133.104795
L 567.469554 132.692773
L 569.363364 132.401584
L 571.257173 132.602569
L 572.204078 132.961528
L 573.150982 132.929462
L 574.097887 133.287742
L 575.044791 133.465315
L 577.885505 133.348742
L 578.83241 133.445074
L 579.779315 133.412095
L 580.726219 133.204637
L 582.620028 133.53516
L 583.566933 133.704768
L 584.513838 133.993219
L 585.460742 133.830993
L 588.301456 133.701824
L 589.248361 133.564707
L 590.195265 133.272165
L 591.14217 133.37317
L 592.089075 133.170497
L 593.035979 133.29766
L 594.929789 133.14612
L 595.876693 133.135159
L 596.823598 132.844092
L 599.664312 132.713663
L 600.611216 133.022765
L 602.505026 132.987872
L 603.45193 133.217038
L 604.398835 132.920699
L 606.292644 132.711864
L 607.239549 133.036337
L 608.186453 133.212499
L 609.133358 132.974254
L 610.080263 133.191277
L 611.027167 132.952478
L 611.974072 132.964353
L 612.920976 132.815686
L 614.814786 133.148569
L 616.708595 133.101338
L 617.6555 132.808693
L 618.602404 132.755593
L 619.549309 133.213375
L 620.496213 133.386859
L 621.443118 133.396213
L 622.390023 133.104698
L 623.336927 132.990842
L 624.283832 133.205734
L 625.230736 133.26418
L 626.177641 133.60663
L 629.018355 133.245323
L 630.912164 132.65095
L 634.699783 132.556659
L 636.593592 133.030938
L 638.487401 132.959296
L 639.434306 132.70658
L 641.328115 132.564777
L 642.27502 132.380981
L 644.168829 132.329656
L 646.062638 132.792191
L 648.903352 133.031395
L 649.850257 133.232116
L 651.744066 132.864455
L 652.690971 133.278835
L 653.637875 133.28283
L 654.58478 133.92012
L 656.478589 134.521512
L 657.425494 135.041301
L 658.372398 134.942279
L 659.319303 134.388143
L 660.266208 133.452426
L 662.160017 130.933465
L 664.053826 128.287059
L 665.000731 127.129437
L 665.947635 125.434837
L 666.89454 123.142128
L 667.841445 122.413563
L 668.788349 121.331871
L 669.735254 121.478713
L 670.682158 122.819464
L 671.629063 123.598336
L 672.575968 124.840886
L 673.522872 126.692002
L 674.469777 127.734134
L 675.416681 129.723155
L 676.363586 132.089891
L 677.310491 133.582104
L 678.257395 134.806255
L 679.2043 135.02866
L 680.151205 134.622064
L 681.098109 134.023139
L 682.045014 133.857342
L 682.991918 133.550564
L 683.938823 133.451451
L 684.885728 133.164533
L 690.567155 132.781446
L 690.567155 132.781446
" clip-path="url(#p75b31c00cb)" style="fill: none; stroke: #c17a1a; stroke-width: 1.5; stroke-linecap: square"/>
   </g>
   <g id="patch_3">
    <path d="M 47.2875 140.400257
L 47.2875 26.201496
" style="fill: none; stroke: #000000; stroke-width: 0.8; stroke-linejoin: miter; stroke-linecap: square"/>
   </g>
   <g id="patch_4">
    <path d="M 47.2875 140.400257
L 721.19952 140.400257
" style="fill: none; stroke: #000000; stroke-width: 0.8; stroke-linejoin: miter; stroke-linecap: square"/>
   </g>
   <g id="legend_1">
    <g id="line2d_15">
     <path d="M 620.22577 36.680246
L 628.22577 36.680246
L 636.22577 36.680246
" style="fill: none; stroke: #245b86; stroke-width: 1.5; stroke-linecap: square"/>
    </g>
    <g id="text_7">
     <!-- Feature robust z -->
     <g transform="translate(642.62577 39.480246) scale(0.08 -0.08)">
      <defs>
       <path id="DejaVuSans-29" d="M 628 4666
L 3309 4666
L 3309 4134
L 1259 4134
L 1259 2759
L 3109 2759
L 3109 2228
L 1259 2228
L 1259 0
L 628 0
L 628 4666
z
" transform="scale(0.015625)"/>
       <path id="DejaVuSans-44" d="M 2194 1759
Q 1497 1759 1228 1600
Q 959 1441 959 1056
Q 959 750 1161 570
Q 1363 391 1709 391
Q 2188 391 2477 730
Q 2766 1069 2766 1631
L 2766 1759
L 2194 1759
z
M 3341 1997
L 3341 0
L 2766 0
L 2766 531
Q 2569 213 2275 61
Q 1981 -91 1556 -91
Q 1019 -91 701 211
Q 384 513 384 1019
Q 384 1609 779 1909
Q 1175 2209 1959 2209
L 2766 2209
L 2766 2266
Q 2766 2663 2505 2880
Q 2244 3097 1772 3097
Q 1472 3097 1187 3025
Q 903 2953 641 2809
L 641 3341
Q 956 3463 1253 3523
Q 1550 3584 1831 3584
Q 2591 3584 2966 3190
Q 3341 2797 3341 1997
z
" transform="scale(0.015625)"/>
       <path id="DejaVuSans-58" d="M 544 1381
L 544 3500
L 1119 3500
L 1119 1403
Q 1119 906 1312 657
Q 1506 409 1894 409
Q 2359 409 2629 706
Q 2900 1003 2900 1516
L 2900 3500
L 3475 3500
L 3475 0
L 2900 0
L 2900 538
Q 2691 219 2414 64
Q 2138 -91 1772 -91
Q 1169 -91 856 284
Q 544 659 544 1381
z
M 1991 3584
L 1991 3584
z
" transform="scale(0.015625)"/>
       <path id="DejaVuSans-55" d="M 2631 2963
Q 2534 3019 2420 3045
Q 2306 3072 2169 3072
Q 1681 3072 1420 2755
Q 1159 2438 1159 1844
L 1159 0
L 581 0
L 581 3500
L 1159 3500
L 1159 2956
Q 1341 3275 1631 3429
Q 1922 3584 2338 3584
Q 2397 3584 2469 3576
Q 2541 3569 2628 3553
L 2631 2963
z
" transform="scale(0.015625)"/>
       <path id="DejaVuSans-45" d="M 3116 1747
Q 3116 2381 2855 2742
Q 2594 3103 2138 3103
Q 1681 3103 1420 2742
Q 1159 2381 1159 1747
Q 1159 1113 1420 752
Q 1681 391 2138 391
Q 2594 391 2855 752
Q 3116 1113 3116 1747
z
M 1159 2969
Q 1341 3281 1617 3432
Q 1894 3584 2278 3584
Q 2916 3584 3314 3078
Q 3713 2572 3713 1747
Q 3713 922 3314 415
Q 2916 -91 2278 -91
Q 1894 -91 1617 61
Q 1341 213 1159 525
L 1159 0
L 581 0
L 581 4863
L 1159 4863
L 1159 2969
z
" transform="scale(0.015625)"/>
       <path id="DejaVuSans-56" d="M 2834 3397
L 2834 2853
Q 2591 2978 2328 3040
Q 2066 3103 1784 3103
Q 1356 3103 1142 2972
Q 928 2841 928 2578
Q 928 2378 1081 2264
Q 1234 2150 1697 2047
L 1894 2003
Q 2506 1872 2764 1633
Q 3022 1394 3022 966
Q 3022 478 2636 193
Q 2250 -91 1575 -91
Q 1294 -91 989 -36
Q 684 19 347 128
L 347 722
Q 666 556 975 473
Q 1284 391 1588 391
Q 1994 391 2212 530
Q 2431 669 2431 922
Q 2431 1156 2273 1281
Q 2116 1406 1581 1522
L 1381 1569
Q 847 1681 609 1914
Q 372 2147 372 2553
Q 372 3047 722 3315
Q 1072 3584 1716 3584
Q 2034 3584 2315 3537
Q 2597 3491 2834 3397
z
" transform="scale(0.015625)"/>
      </defs>
      <use xlink:href="#DejaVuSans-29"/>
      <use xlink:href="#DejaVuSans-48" transform="translate(52.046875 0)"/>
      <use xlink:href="#DejaVuSans-44" transform="translate(113.578125 0)"/>
      <use xlink:href="#DejaVuSans-57" transform="translate(174.859375 0)"/>
      <use xlink:href="#DejaVuSans-58" transform="translate(214.0625 0)"/>
      <use xlink:href="#DejaVuSans-55" transform="translate(277.4375 0)"/>
      <use xlink:href="#DejaVuSans-48" transform="translate(316.34375 0)"/>
      <use xlink:href="#DejaVuSans-3" transform="translate(377.875 0)"/>
      <use xlink:href="#DejaVuSans-55" transform="translate(409.65625 0)"/>
      <use xlink:href="#DejaVuSans-52" transform="translate(448.5625 0)"/>
      <use xlink:href="#DejaVuSans-45" transform="translate(509.75 0)"/>
      <use xlink:href="#DejaVuSans-58" transform="translate(573.234375 0)"/>
      <use xlink:href="#DejaVuSans-56" transform="translate(636.609375 0)"/>
      <use xlink:href="#DejaVuSans-57" transform="translate(688.703125 0)"/>
      <use xlink:href="#DejaVuSans-3" transform="translate(727.90625 0)"/>
      <use xlink:href="#DejaVuSans-5d" transform="translate(759.6875 0)"/>
     </g>
    </g>
    <g id="line2d_16">
     <path d="M 620.22577 48.680871
L 628.22577 48.680871
L 636.22577 48.680871
" style="fill: none; stroke: #c17a1a; stroke-width: 1.5; stroke-linecap: square"/>
    </g>
    <g id="text_8">
     <!-- Temporal robust z -->
     <g transform="translate(642.62577 51.480871) scale(0.08 -0.08)">
      <defs>
       <path id="DejaVuSans-37" d="M -19 4666
L 3928 4666
L 3928 4134
L 2272 4134
L 2272 0
L 1638 0
L 1638 4134
L -19 4134
L -19 4666
z
" transform="scale(0.015625)"/>
       <path id="DejaVuSans-4f" d="M 603 4863
L 1178 4863
L 1178 0
L 603 0
L 603 4863
z
" transform="scale(0.015625)"/>
      </defs>
      <use xlink:href="#DejaVuSans-37"/>
      <use xlink:href="#DejaVuSans-48" transform="translate(44.09375 0)"/>
      <use xlink:href="#DejaVuSans-50" transform="translate(105.625 0)"/>
      <use xlink:href="#DejaVuSans-53" transform="translate(203.03125 0)"/>
      <use xlink:href="#DejaVuSans-52" transform="translate(266.515625 0)"/>
      <use xlink:href="#DejaVuSans-55" transform="translate(327.703125 0)"/>
      <use xlink:href="#DejaVuSans-44" transform="translate(368.8125 0)"/>
      <use xlink:href="#DejaVuSans-4f" transform="translate(430.09375 0)"/>
      <use xlink:href="#DejaVuSans-3" transform="translate(457.875 0)"/>
      <use xlink:href="#DejaVuSans-55" transform="translate(489.65625 0)"/>
      <use xlink:href="#DejaVuSans-52" transform="translate(528.5625 0)"/>
      <use xlink:href="#DejaVuSans-45" transform="translate(589.75 0)"/>
      <use xlink:href="#DejaVuSans-58" transform="translate(653.234375 0)"/>
      <use xlink:href="#DejaVuSans-56" transform="translate(716.609375 0)"/>
      <use xlink:href="#DejaVuSans-57" transform="translate(768.703125 0)"/>
      <use xlink:href="#DejaVuSans-3" transform="translate(807.90625 0)"/>
      <use xlink:href="#DejaVuSans-5d" transform="translate(839.6875 0)"/>
     </g>
    </g>
   </g>
  </g>
  <g id="axes_2">
   <g id="patch_5">
    <path d="M 47.2875 264.099498
L 721.19952 264.099498
L 721.19952 149.900737
L 47.2875 149.900737
z
" style="fill: #ffffff"/>
   </g>
   <g id="matplotlib.axis_3">
    <g id="xtick_8">
     <g id="line2d_17">
      <g>
       <use xlink:href="#m89553a92df" x="59.928677" y="264.099498" style="stroke: #000000; stroke-width: 0.8"/>
      </g>
     </g>
    </g>
    <g id="xtick_9">
     <g id="line2d_18">
      <g>
       <use xlink:href="#m89553a92df" x="154.619139" y="264.099498" style="stroke: #000000; stroke-width: 0.8"/>
      </g>
     </g>
    </g>
    <g id="xtick_10">
     <g id="line2d_19">
      <g>
       <use xlink:href="#m89553a92df" x="249.309601" y="264.099498" style="stroke: #000000; stroke-width: 0.8"/>
      </g>
     </g>
    </g>
    <g id="xtick_11">
     <g id="line2d_20">
      <g>
       <use xlink:href="#m89553a92df" x="344.000064" y="264.099498" style="stroke: #000000; stroke-width: 0.8"/>
      </g>
     </g>
    </g>
    <g id="xtick_12">
     <g id="line2d_21">
      <g>
       <use xlink:href="#m89553a92df" x="438.690526" y="264.099498" style="stroke: #000000; stroke-width: 0.8"/>
      </g>
     </g>
    </g>
    <g id="xtick_13">
     <g id="line2d_22">
      <g>
       <use xlink:href="#m89553a92df" x="533.380988" y="264.099498" style="stroke: #000000; stroke-width: 0.8"/>
      </g>
     </g>
    </g>
    <g id="xtick_14">
     <g id="line2d_23">
      <g>
       <use xlink:href="#m89553a92df" x="628.07145" y="264.099498" style="stroke: #000000; stroke-width: 0.8"/>
      </g>
     </g>
    </g>
   </g>
   <g id="matplotlib.axis_4">
    <g id="ytick_6">
     <g id="line2d_24">
      <g>
       <use xlink:href="#m166a8c9874" x="47.2875" y="256.072076" style="stroke: #000000; stroke-width: 0.8"/>
      </g>
     </g>
     <g id="text_9">
      <!-- 0 -->
      <g transform="translate(33.925 259.870905) scale(0.1 -0.1)">
       <use xlink:href="#DejaVuSans-13"/>
      </g>
     </g>
    </g>
    <g id="ytick_7">
     <g id="line2d_25">
      <g>
       <use xlink:href="#m166a8c9874" x="47.2875" y="217.519101" style="stroke: #000000; stroke-width: 0.8"/>
      </g>
     </g>
     <g id="text_10">
      <!-- 20 -->
      <g transform="translate(27.5625 221.317929) scale(0.1 -0.1)">
       <use xlink:href="#DejaVuSans-15"/>
       <use xlink:href="#DejaVuSans-13" transform="translate(63.625 0)"/>
      </g>
     </g>
    </g>
    <g id="ytick_8">
     <g id="line2d_26">
      <g>
       <use xlink:href="#m166a8c9874" x="47.2875" y="178.966126" style="stroke: #000000; stroke-width: 0.8"/>
      </g>
     </g>
     <g id="text_11">
      <!-- 40 -->
      <g transform="translate(27.5625 182.764954) scale(0.1 -0.1)">
       <defs>
        <path id="DejaVuSans-17" d="M 2419 4116
L 825 1625
L 2419 1625
L 2419 4116
z
M 2253 4666
L 3047 4666
L 3047 1625
L 3713 1625
L 3713 1100
L 3047 1100
L 3047 0
L 2419 0
L 2419 1100
L 313 1100
L 313 1709
L 2253 4666
z
" transform="scale(0.015625)"/>
       </defs>
       <use xlink:href="#DejaVuSans-17"/>
       <use xlink:href="#DejaVuSans-13" transform="translate(63.625 0)"/>
      </g>
     </g>
    </g>
    <g id="text_12">
     <!-- P3 score -->
     <g transform="translate(21.160156 228.22043) rotate(-90) scale(0.1 -0.1)">
      <defs>
       <path id="DejaVuSans-33" d="M 1259 4147
L 1259 2394
L 2053 2394
Q 2494 2394 2734 2622
Q 2975 2850 2975 3272
Q 2975 3691 2734 3919
Q 2494 4147 2053 4147
L 1259 4147
z
M 628 4666
L 2053 4666
Q 2838 4666 3239 4311
Q 3641 3956 3641 3272
Q 3641 2581 3239 2228
Q 2838 1875 2053 1875
L 1259 1875
L 1259 0
L 628 0
L 628 4666
z
" transform="scale(0.015625)"/>
       <path id="DejaVuSans-16" d="M 2597 2516
Q 3050 2419 3304 2112
Q 3559 1806 3559 1356
Q 3559 666 3084 287
Q 2609 -91 1734 -91
Q 1441 -91 1130 -33
Q 819 25 488 141
L 488 750
Q 750 597 1062 519
Q 1375 441 1716 441
Q 2309 441 2620 675
Q 2931 909 2931 1356
Q 2931 1769 2642 2001
Q 2353 2234 1838 2234
L 1294 2234
L 1294 2753
L 1863 2753
Q 2328 2753 2575 2939
Q 2822 3125 2822 3475
Q 2822 3834 2567 4026
Q 2313 4219 1838 4219
Q 1578 4219 1281 4162
Q 984 4106 628 3988
L 628 4550
Q 988 4650 1302 4700
Q 1616 4750 1894 4750
Q 2613 4750 3031 4423
Q 3450 4097 3450 3541
Q 3450 3153 3228 2886
Q 3006 2619 2597 2516
z
" transform="scale(0.015625)"/>
       <path id="DejaVuSans-46" d="M 3122 3366
L 3122 2828
Q 2878 2963 2633 3030
Q 2388 3097 2138 3097
Q 1578 3097 1268 2742
Q 959 2388 959 1747
Q 959 1106 1268 751
Q 1578 397 2138 397
Q 2388 397 2633 464
Q 2878 531 3122 666
L 3122 134
Q 2881 22 2623 -34
Q 2366 -91 2075 -91
Q 1284 -91 818 406
Q 353 903 353 1747
Q 353 2603 823 3093
Q 1294 3584 2113 3584
Q 2378 3584 2631 3529
Q 2884 3475 3122 3366
z
" transform="scale(0.015625)"/>
      </defs>
      <use xlink:href="#DejaVuSans-33"/>
      <use xlink:href="#DejaVuSans-16" transform="translate(60.296875 0)"/>
      <use xlink:href="#DejaVuSans-3" transform="translate(123.921875 0)"/>
      <use xlink:href="#DejaVuSans-56" transform="translate(155.703125 0)"/>
      <use xlink:href="#DejaVuSans-46" transform="translate(207.796875 0)"/>
      <use xlink:href="#DejaVuSans-52" transform="translate(262.78125 0)"/>
      <use xlink:href="#DejaVuSans-55" transform="translate(323.96875 0)"/>
      <use xlink:href="#DejaVuSans-48" transform="translate(362.875 0)"/>
     </g>
    </g>
   </g>
   <g id="line2d_27">
    <path d="M 77.919865 255.888071
L 78.866769 257.373671
L 79.813674 256.523294
L 80.760578 257.299647
L 81.707483 257.049585
L 82.654388 256.407784
L 83.601292 256.047428
L 84.548197 255.395642
L 85.495102 254.903294
L 86.442006 256.698383
L 87.388911 257.535004
L 88.335815 257.257264
L 89.28272 257.335513
L 90.229625 256.843239
L 91.176529 257.640425
L 92.123434 256.956228
L 93.070339 257.298831
L 94.017243 257.317166
L 94.964148 256.758382
L 95.911052 255.900964
L 96.857957 257.070672
L 98.751766 258.218269
L 99.698671 258.481486
L 101.59248 257.276326
L 102.539385 256.55493
L 103.486289 256.703043
L 104.433194 257.213062
L 105.380099 257.929286
L 107.273908 257.579769
L 108.220812 258.31624
L 109.167717 257.284534
L 110.114622 257.916575
L 111.061526 258.284525
L 112.008431 258.162348
L 112.955336 257.413841
L 114.849145 257.088908
L 115.796049 256.755402
L 117.689859 257.270847
L 118.636763 256.46532
L 119.583668 255.982094
L 120.530573 255.166108
L 121.477477 255.43
L 122.424382 255.132854
L 123.371286 255.137655
L 124.318191 255.848835
L 125.265096 255.196396
L 126.212 255.357622
L 127.158905 256.69381
L 128.10581 257.015411
L 129.052714 258.108948
L 129.999619 258.653789
L 130.946523 258.61177
L 131.893428 258.908645
L 132.840333 258.676535
L 133.787237 258.302561
L 134.734142 257.503387
L 135.681047 256.948073
L 136.627951 256.533484
L 138.52176 257.62503
L 139.468665 257.569492
L 140.41557 258.168305
L 142.309379 256.921568
L 143.256284 256.45427
L 144.203188 255.459655
L 146.096997 255.369964
L 147.990807 254.519351
L 148.937711 254.891472
L 149.884616 256.038035
L 150.83152 256.144165
L 151.778425 256.433703
L 152.72533 256.905112
L 153.672234 256.263729
L 154.619139 257.335925
L 155.566044 256.750674
L 156.512948 256.990012
L 157.459853 256.507245
L 158.406757 256.963179
L 159.353662 257.135087
L 160.300567 257.561176
L 161.247471 258.463607
L 162.194376 258.289987
L 163.141281 258.38666
L 164.088185 257.732719
L 165.981994 256.817726
L 166.928899 256.957677
L 167.875804 256.602238
L 168.822708 256.982917
L 169.769613 256.240418
L 170.716518 255.879957
L 171.663422 255.130558
L 172.610327 255.39007
L 173.557231 255.962626
L 175.451041 254.118885
L 176.397945 252.70197
L 178.291755 253.195564
L 179.238659 253.751321
L 180.185564 254.152485
L 181.132468 255.08933
L 182.079373 256.360394
L 183.026278 257.069327
L 183.973182 257.182662
L 184.920087 257.02177
L 185.866992 256.445801
L 186.813896 257.446423
L 187.760801 258.029154
L 188.707705 257.132425
L 189.65461 258.10779
L 190.601515 258.236136
L 192.495324 258.16165
L 193.442229 258.497308
L 194.389133 257.455359
L 195.336038 257.394435
L 199.123656 255.492648
L 200.070561 255.908134
L 201.017466 256.986241
L 201.96437 256.477751
L 202.911275 256.161094
L 203.858179 256.082461
L 204.805084 255.464192
L 205.751989 255.506324
L 206.698893 255.709575
L 207.645798 255.671635
L 208.592702 256.171752
L 209.539607 257.548503
L 210.486512 258.029425
L 212.380321 258.379188
L 213.327226 258.07262
L 214.27413 257.94302
L 215.221035 257.105718
L 216.167939 256.699386
L 218.061749 256.485116
L 220.902463 256.705116
L 222.796272 256.608688
L 225.636986 254.670674
L 226.58389 255.142434
L 229.424604 254.102696
L 230.371509 254.978277
L 231.318413 255.199295
L 232.265318 255.594438
L 234.159127 255.033835
L 236.052937 253.772768
L 236.999841 254.258045
L 238.89365 254.652359
L 239.840555 255.416227
L 240.78746 255.949474
L 241.734364 256.062146
L 242.681269 256.433564
L 243.628174 258.296078
L 244.575078 258.108785
L 245.521983 256.974325
L 246.468887 255.376562
L 247.415792 254.548781
L 248.362697 253.320567
L 249.309601 251.832861
L 250.256506 251.304641
L 251.203411 250.465501
L 252.150315 250.155436
L 253.09722 249.223683
L 254.044124 247.936319
L 255.937934 244.8912
L 256.884838 246.180558
L 257.831743 243.629679
L 258.778647 242.167414
L 259.725552 241.569546
L 261.619361 237.659422
L 263.513171 245.420213
L 264.460075 246.176267
L 265.40698 246.116906
L 266.353884 247.515393
L 267.300789 247.686873
L 268.247694 247.313031
L 269.194598 246.765805
L 270.141503 247.139663
L 271.088408 246.071159
L 272.035312 247.236128
L 272.982217 247.017519
L 273.929121 247.108549
L 274.876026 246.483583
L 275.822931 246.468404
L 276.769835 248.341493
L 277.71674 249.066334
L 278.663645 245.808705
L 280.557454 247.429769
L 281.504358 249.798499
L 282.451263 250.540109
L 283.398168 252.737409
L 284.345072 254.242724
L 285.291977 253.081925
L 286.238882 252.921363
L 287.185786 252.366157
L 288.132691 252.007354
L 289.079595 252.426611
L 290.0265 253.382326
L 290.973405 255.577269
L 291.920309 256.438127
L 292.867214 256.180158
L 293.814119 255.325556
L 294.761023 255.373993
L 295.707928 255.693988
L 296.654832 255.849736
L 297.601737 256.320213
L 298.548642 256.334971
L 299.495546 255.775761
L 300.442451 253.779019
L 301.389356 252.798322
L 302.33626 252.246761
L 303.283165 252.480036
L 304.230069 253.528927
L 305.176974 253.940942
L 306.123879 255.624404
L 307.070783 255.960179
L 308.017688 255.948732
L 308.964592 256.070293
L 309.911497 255.825469
L 310.858402 255.201294
L 312.752211 255.503776
L 313.699116 255.606968
L 314.64602 255.158214
L 315.592925 254.471436
L 317.486734 254.298479
L 318.433639 254.762092
L 319.380543 254.073911
L 320.327448 253.831731
L 321.274353 254.309022
L 322.221257 253.774725
L 323.168162 253.609021
L 324.115066 254.019527
L 325.061971 254.177431
L 326.008876 254.600596
L 326.95578 255.185317
L 327.902685 255.267322
L 329.796494 255.623805
L 330.743399 256.270967
L 333.584113 255.50988
L 334.531017 255.811648
L 337.371731 257.298687
L 339.26554 257.43842
L 340.212445 257.049975
L 341.15935 257.537726
L 343.053159 256.583335
L 344.000064 256.85248
L 344.946968 256.565999
L 345.893873 256.675249
L 346.840777 256.324496
L 347.787682 257.24995
L 348.734587 257.471422
L 349.681491 258.130003
L 350.628396 258.184073
L 352.522205 257.600654
L 353.46911 257.921105
L 354.416014 257.930906
L 355.362919 257.180541
L 356.309824 256.682267
L 357.256728 256.794842
L 358.203633 257.16595
L 359.150537 256.996791
L 360.097442 257.570977
L 361.991251 258.019333
L 363.885061 257.824343
L 364.831965 258.100837
L 365.77887 257.859918
L 366.725774 257.87656
L 367.672679 257.493529
L 368.619584 257.50973
L 369.566488 257.648663
L 370.513393 257.993155
L 372.407202 257.871926
L 373.354107 257.108198
L 374.301011 257.176279
L 375.247916 257.416996
L 376.194821 257.056937
L 377.141725 256.49204
L 378.08863 256.80507
L 379.035535 256.613025
L 379.982439 256.620258
L 380.929344 256.326607
L 381.876248 256.566373
L 382.823153 257.047958
L 383.770058 256.854771
L 384.716962 256.794957
L 386.610772 256.258554
L 388.504581 256.300314
L 389.451485 256.413184
L 390.39839 255.743104
L 391.345295 255.977254
L 392.292199 256.359299
L 394.186009 256.430104
L 395.132913 256.200638
L 396.079818 256.090572
L 397.026722 255.811915
L 397.973627 255.338192
L 398.920532 255.703409
L 399.867436 255.662596
L 402.70815 256.472591
L 404.601959 256.329862
L 406.495769 256.748749
L 407.442673 256.720564
L 408.389578 256.809645
L 409.336483 256.134245
L 411.230292 255.98644
L 412.177196 256.227024
L 414.071006 256.100763
L 415.01791 255.899687
L 416.911719 255.20492
L 417.858624 254.883454
L 418.805529 254.991849
L 420.699338 255.488786
L 421.646243 256.375101
L 422.593147 256.347111
L 424.486956 255.671997
L 425.433861 255.874036
L 426.380766 255.455238
L 427.32767 255.827104
L 428.274575 256.026675
L 429.22148 255.349588
L 430.168384 255.161286
L 431.115289 255.175694
L 433.009098 255.815999
L 433.956003 256.363599
L 434.902907 256.175723
L 435.849812 255.740042
L 436.796717 255.486997
L 437.743621 254.889778
L 438.690526 255.181244
L 439.63743 254.775041
L 440.584335 254.744916
L 441.53124 254.370388
L 442.478144 254.94783
L 443.425049 254.84655
L 444.371954 255.24098
L 445.318858 255.027261
L 446.265763 255.554034
L 447.212667 255.219516
L 448.159572 255.621243
L 449.106477 255.223717
L 450.053381 254.537308
L 451.000286 253.557558
L 451.947191 253.542017
L 453.841 249.53089
L 454.787904 248.311391
L 456.681714 246.640358
L 457.628618 244.452879
L 458.575523 242.608969
L 459.522428 239.608022
L 460.469332 235.233398
L 462.363141 220.899532
L 463.310046 212.499932
L 464.256951 201.612496
L 467.097664 185.8363
L 468.044569 191.437687
L 468.991474 198.681048
L 469.938378 210.752134
L 470.885283 219.840387
L 471.832188 226.980157
L 472.779092 229.06502
L 474.672901 235.9911
L 475.619806 236.776956
L 477.513615 234.931802
L 479.407425 222.271006
L 480.354329 211.470272
L 481.301234 195.54511
L 482.248138 171.797006
L 483.195043 155.091589
L 484.141948 167.363574
L 486.035757 211.396946
L 486.982662 228.325729
L 487.929566 241.703186
L 488.876471 247.774451
L 489.823375 251.0809
L 490.77028 253.64103
L 491.717185 255.372115
L 492.664089 256.534437
L 493.610994 253.782888
L 494.557899 253.809217
L 495.504803 254.233076
L 496.451708 253.82457
L 497.398612 253.640014
L 498.345517 252.79124
L 499.292422 252.802542
L 500.239326 253.113779
L 501.186231 253.259397
L 502.133136 253.024594
L 503.08004 252.652134
L 504.026945 252.002616
L 504.973849 252.025998
L 505.920754 251.60733
L 506.867659 252.161893
L 507.814563 252.094651
L 508.761468 252.704866
L 509.708373 252.860328
L 511.602182 252.368515
L 513.495991 252.728786
L 514.442896 252.814617
L 515.3898 252.477799
L 516.336705 251.939976
L 517.283609 252.029084
L 518.230514 251.921513
L 520.124323 252.527824
L 521.071228 252.641838
L 522.018133 252.361964
L 522.965037 252.310197
L 526.752656 253.699896
L 527.69956 253.58022
L 528.646465 253.609344
L 529.59337 253.851811
L 530.540274 253.848125
L 531.487179 254.08389
L 532.434083 254.054843
L 533.380988 254.352966
L 534.327893 254.775372
L 536.221702 255.097907
L 537.168607 254.960373
L 538.115511 255.21549
L 539.062416 255.194125
L 540.00932 254.829988
L 540.956225 255.227534
L 542.850034 255.784038
L 543.796939 255.67508
L 545.690748 255.939931
L 546.637653 255.798578
L 547.584557 255.499649
L 551.372176 255.938966
L 552.319081 256.518039
L 553.265985 256.354115
L 554.21289 256.548652
L 555.159794 256.399988
L 557.053604 256.775531
L 558.947413 256.140142
L 559.894318 256.056699
L 560.841222 256.095375
L 561.788127 256.466637
L 562.735031 256.718213
L 563.681936 256.735854
L 564.628841 256.232544
L 566.52265 256.42342
L 567.469554 256.178659
L 568.416459 255.737754
L 569.363364 255.423011
L 570.310268 255.935033
L 571.257173 256.176609
L 572.204078 256.267417
L 573.150982 256.151105
L 574.097887 256.773353
L 575.044791 256.758157
L 575.991696 256.546004
L 576.938601 256.76517
L 577.885505 256.765185
L 578.83241 256.927725
L 579.779315 256.854528
L 580.726219 256.548735
L 581.673124 256.48726
L 584.513838 257.562837
L 585.460742 257.155665
L 589.248361 256.938669
L 590.195265 256.804709
L 591.14217 256.970223
L 593.035979 256.582126
L 593.982884 256.535391
L 594.929789 256.650538
L 595.876693 256.550974
L 596.823598 256.041769
L 599.664312 255.737415
L 600.611216 256.04259
L 603.45193 256.554163
L 604.398835 256.368709
L 605.345739 256.359109
L 606.292644 256.09648
L 607.239549 256.670699
L 608.186453 256.791092
L 610.080263 256.643087
L 611.027167 256.414139
L 613.867881 256.364613
L 614.814786 256.458515
L 618.602404 256.14489
L 620.496213 256.55145
L 621.443118 256.508018
L 622.390023 256.056179
L 623.336927 255.841736
L 624.283832 255.916344
L 625.230736 255.870848
L 626.177641 256.263278
L 627.124546 256.084847
L 628.07145 256.274108
L 629.018355 256.025033
L 629.96526 255.620652
L 630.912164 255.515928
L 633.752878 255.659046
L 634.699783 255.505802
L 636.593592 256.017336
L 639.434306 255.437736
L 640.38121 255.64674
L 641.328115 255.568213
L 642.27502 255.286625
L 643.221924 255.387904
L 644.168829 255.312654
L 647.009543 256.003302
L 647.956447 255.787361
L 649.850257 256.180919
L 650.797161 255.949296
L 651.744066 255.42115
L 652.690971 256.163278
L 653.637875 256.199564
L 654.58478 256.708938
L 657.425494 256.391755
L 658.372398 255.501778
L 659.319303 254.454473
L 660.266208 253.095388
L 661.213112 250.612304
L 662.160017 248.568059
L 663.106921 247.126365
L 665.000731 243.687266
L 665.947635 248.011298
L 666.89454 245.503274
L 667.841445 244.827649
L 668.788349 243.482314
L 669.735254 243.732306
L 670.682158 244.923836
L 674.469777 248.920399
L 675.416681 250.694053
L 676.363586 253.004616
L 678.257395 255.578123
L 679.2043 255.794201
L 680.151205 255.399776
L 681.098109 254.69908
L 682.045014 254.675515
L 684.885728 254.044378
L 686.779537 254.294705
L 687.726442 253.932603
L 690.567155 253.895318
L 690.567155 253.895318
" clip-path="url(#pb65d46646e)" style="fill: none; stroke: #245b86; stroke-width: 1.5; stroke-linecap: square"/>
   </g>
   <g id="line2d_28">
    <path d="M 47.2875 199.644888
L 721.19952 199.644888
" clip-path="url(#pb65d46646e)" style="fill: none; stroke-dasharray: 5.55,2.4; stroke-dashoffset: 0; stroke: #333333; stroke-width: 1.5"/>
   </g>
   <g id="patch_6">
    <path d="M 47.2875 264.099498
L 47.2875 149.900737
" style="fill: none; stroke: #000000; stroke-width: 0.8; stroke-linejoin: miter; stroke-linecap: square"/>
   </g>
   <g id="patch_7">
    <path d="M 47.2875 264.099498
L 721.19952 264.099498
" style="fill: none; stroke: #000000; stroke-width: 0.8; stroke-linejoin: miter; stroke-linecap: square"/>
   </g>
   <g id="legend_2">
    <g id="patch_8">
     <path d="M 603.03452 180.301987
L 715.59952 180.301987
Q 717.19952 180.301987 717.19952 178.701987
L 717.19952 155.500737
Q 717.19952 153.900737 715.59952 153.900737
L 603.03452 153.900737
Q 601.43452 153.900737 601.43452 155.500737
L 601.43452 178.701987
Q 601.43452 180.301987 603.03452 180.301987
z
" style="fill: #ffffff"/>
    </g>
    <g id="line2d_29">
     <path d="M 604.63452 160.379487
L 612.63452 160.379487
L 620.63452 160.379487
" style="fill: none; stroke: #245b86; stroke-width: 1.5; stroke-linecap: square"/>
    </g>
    <g id="text_13">
     <!-- P3 total -->
     <g transform="translate(627.03452 163.179487) scale(0.08 -0.08)">
      <use xlink:href="#DejaVuSans-33"/>
      <use xlink:href="#DejaVuSans-16" transform="translate(60.296875 0)"/>
      <use xlink:href="#DejaVuSans-3" transform="translate(123.921875 0)"/>
      <use xlink:href="#DejaVuSans-57" transform="translate(155.703125 0)"/>
      <use xlink:href="#DejaVuSans-52" transform="translate(194.90625 0)"/>
      <use xlink:href="#DejaVuSans-57" transform="translate(256.09375 0)"/>
      <use xlink:href="#DejaVuSans-44" transform="translate(295.296875 0)"/>
      <use xlink:href="#DejaVuSans-4f" transform="translate(356.578125 0)"/>
     </g>
    </g>
    <g id="line2d_30">
     <path d="M 604.63452 172.380112
L 612.63452 172.380112
L 620.63452 172.380112
" style="fill: none; stroke-dasharray: 5.55,2.4; stroke-dashoffset: 0; stroke: #333333; stroke-width: 1.5"/>
    </g>
    <g id="text_14">
     <!-- Normal q99 threshold -->
     <g transform="translate(627.03452 175.180112) scale(0.08 -0.08)">
      <defs>
       <path id="DejaVuSans-31" d="M 628 4666
L 1478 4666
L 3547 763
L 3547 4666
L 4159 4666
L 4159 0
L 3309 0
L 1241 3903
L 1241 0
L 628 0
L 628 4666
z
" transform="scale(0.015625)"/>
       <path id="DejaVuSans-54" d="M 947 1747
Q 947 1113 1208 752
Q 1469 391 1925 391
Q 2381 391 2643 752
Q 2906 1113 2906 1747
Q 2906 2381 2643 2742
Q 2381 3103 1925 3103
Q 1469 3103 1208 2742
Q 947 2381 947 1747
z
M 2906 525
Q 2725 213 2448 61
Q 2172 -91 1784 -91
Q 1150 -91 751 415
Q 353 922 353 1747
Q 353 2572 751 3078
Q 1150 3584 1784 3584
Q 2172 3584 2448 3432
Q 2725 3281 2906 2969
L 2906 3500
L 3481 3500
L 3481 -1331
L 2906 -1331
L 2906 525
z
" transform="scale(0.015625)"/>
       <path id="DejaVuSans-1c" d="M 703 97
L 703 672
Q 941 559 1184 500
Q 1428 441 1663 441
Q 2288 441 2617 861
Q 2947 1281 2994 2138
Q 2813 1869 2534 1725
Q 2256 1581 1919 1581
Q 1219 1581 811 2004
Q 403 2428 403 3163
Q 403 3881 828 4315
Q 1253 4750 1959 4750
Q 2769 4750 3195 4129
Q 3622 3509 3622 2328
Q 3622 1225 3098 567
Q 2575 -91 1691 -91
Q 1453 -91 1209 -44
Q 966 3 703 97
z
M 1959 2075
Q 2384 2075 2632 2365
Q 2881 2656 2881 3163
Q 2881 3666 2632 3958
Q 2384 4250 1959 4250
Q 1534 4250 1286 3958
Q 1038 3666 1038 3163
Q 1038 2656 1286 2365
Q 1534 2075 1959 2075
z
" transform="scale(0.015625)"/>
       <path id="DejaVuSans-4b" d="M 3513 2113
L 3513 0
L 2938 0
L 2938 2094
Q 2938 2591 2744 2837
Q 2550 3084 2163 3084
Q 1697 3084 1428 2787
Q 1159 2491 1159 1978
L 1159 0
L 581 0
L 581 4863
L 1159 4863
L 1159 2956
Q 1366 3272 1645 3428
Q 1925 3584 2291 3584
Q 2894 3584 3203 3211
Q 3513 2838 3513 2113
z
" transform="scale(0.015625)"/>
       <path id="DejaVuSans-47" d="M 2906 2969
L 2906 4863
L 3481 4863
L 3481 0
L 2906 0
L 2906 525
Q 2725 213 2448 61
Q 2172 -91 1784 -91
Q 1150 -91 751 415
Q 353 922 353 1747
Q 353 2572 751 3078
Q 1150 3584 1784 3584
Q 2172 3584 2448 3432
Q 2725 3281 2906 2969
z
M 947 1747
Q 947 1113 1208 752
Q 1469 391 1925 391
Q 2381 391 2643 752
Q 2906 1113 2906 1747
Q 2906 2381 2643 2742
Q 2381 3103 1925 3103
Q 1469 3103 1208 2742
Q 947 2381 947 1747
z
" transform="scale(0.015625)"/>
      </defs>
      <use xlink:href="#DejaVuSans-31"/>
      <use xlink:href="#DejaVuSans-52" transform="translate(74.8125 0)"/>
      <use xlink:href="#DejaVuSans-55" transform="translate(136 0)"/>
      <use xlink:href="#DejaVuSans-50" transform="translate(175.359375 0)"/>
      <use xlink:href="#DejaVuSans-44" transform="translate(272.765625 0)"/>
      <use xlink:href="#DejaVuSans-4f" transform="translate(334.046875 0)"/>
      <use xlink:href="#DejaVuSans-3" transform="translate(361.828125 0)"/>
      <use xlink:href="#DejaVuSans-54" transform="translate(393.609375 0)"/>
      <use xlink:href="#DejaVuSans-1c" transform="translate(457.09375 0)"/>
      <use xlink:href="#DejaVuSans-1c" transform="translate(520.71875 0)"/>
      <use xlink:href="#DejaVuSans-3" transform="translate(584.34375 0)"/>
      <use xlink:href="#DejaVuSans-57" transform="translate(616.125 0)"/>
      <use xlink:href="#DejaVuSans-4b" transform="translate(655.328125 0)"/>
      <use xlink:href="#DejaVuSans-55" transform="translate(718.703125 0)"/>
      <use xlink:href="#DejaVuSans-48" transform="translate(757.609375 0)"/>
      <use xlink:href="#DejaVuSans-56" transform="translate(819.140625 0)"/>
      <use xlink:href="#DejaVuSans-4b" transform="translate(871.234375 0)"/>
      <use xlink:href="#DejaVuSans-52" transform="translate(934.609375 0)"/>
      <use xlink:href="#DejaVuSans-4f" transform="translate(995.796875 0)"/>
      <use xlink:href="#DejaVuSans-47" transform="translate(1023.578125 0)"/>
     </g>
    </g>
   </g>
  </g>
  <g id="axes_3">
   <g id="patch_9">
    <path d="M 47.2875 387.798739
L 721.19952 387.798739
L 721.19952 273.599978
L 47.2875 273.599978
z
" style="fill: #ffffff"/>
   </g>
   <g id="matplotlib.axis_5">
    <g id="xtick_15">
     <g id="line2d_31">
      <g>
       <use xlink:href="#m89553a92df" x="59.928677" y="387.798739" style="stroke: #000000; stroke-width: 0.8"/>
      </g>
     </g>
     <g id="text_15">
      <!-- 0 -->
      <g transform="translate(56.747427 402.396395) scale(0.1 -0.1)">
       <use xlink:href="#DejaVuSans-13"/>
      </g>
     </g>
    </g>
    <g id="xtick_16">
     <g id="line2d_32">
      <g>
       <use xlink:href="#m89553a92df" x="154.619139" y="387.798739" style="stroke: #000000; stroke-width: 0.8"/>
      </g>
     </g>
     <g id="text_16">
      <!-- 100 -->
      <g transform="translate(145.075389 402.396395) scale(0.1 -0.1)">
       <use xlink:href="#DejaVuSans-14"/>
       <use xlink:href="#DejaVuSans-13" transform="translate(63.625 0)"/>
       <use xlink:href="#DejaVuSans-13" transform="translate(127.25 0)"/>
      </g>
     </g>
    </g>
    <g id="xtick_17">
     <g id="line2d_33">
      <g>
       <use xlink:href="#m89553a92df" x="249.309601" y="387.798739" style="stroke: #000000; stroke-width: 0.8"/>
      </g>
     </g>
     <g id="text_17">
      <!-- 200 -->
      <g transform="translate(239.765851 402.396395) scale(0.1 -0.1)">
       <use xlink:href="#DejaVuSans-15"/>
       <use xlink:href="#DejaVuSans-13" transform="translate(63.625 0)"/>
       <use xlink:href="#DejaVuSans-13" transform="translate(127.25 0)"/>
      </g>
     </g>
    </g>
    <g id="xtick_18">
     <g id="line2d_34">
      <g>
       <use xlink:href="#m89553a92df" x="344.000064" y="387.798739" style="stroke: #000000; stroke-width: 0.8"/>
      </g>
     </g>
     <g id="text_18">
      <!-- 300 -->
      <g transform="translate(334.456314 402.396395) scale(0.1 -0.1)">
       <use xlink:href="#DejaVuSans-16"/>
       <use xlink:href="#DejaVuSans-13" transform="translate(63.625 0)"/>
       <use xlink:href="#DejaVuSans-13" transform="translate(127.25 0)"/>
      </g>
     </g>
    </g>
    <g id="xtick_19">
     <g id="line2d_35">
      <g>
       <use xlink:href="#m89553a92df" x="438.690526" y="387.798739" style="stroke: #000000; stroke-width: 0.8"/>
      </g>
     </g>
     <g id="text_19">
      <!-- 400 -->
      <g transform="translate(429.146776 402.396395) scale(0.1 -0.1)">
       <use xlink:href="#DejaVuSans-17"/>
       <use xlink:href="#DejaVuSans-13" transform="translate(63.625 0)"/>
       <use xlink:href="#DejaVuSans-13" transform="translate(127.25 0)"/>
      </g>
     </g>
    </g>
    <g id="xtick_20">
     <g id="line2d_36">
      <g>
       <use xlink:href="#m89553a92df" x="533.380988" y="387.798739" style="stroke: #000000; stroke-width: 0.8"/>
      </g>
     </g>
     <g id="text_20">
      <!-- 500 -->
      <g transform="translate(523.837238 402.396395) scale(0.1 -0.1)">
       <use xlink:href="#DejaVuSans-18"/>
       <use xlink:href="#DejaVuSans-13" transform="translate(63.625 0)"/>
       <use xlink:href="#DejaVuSans-13" transform="translate(127.25 0)"/>
      </g>
     </g>
    </g>
    <g id="xtick_21">
     <g id="line2d_37">
      <g>
       <use xlink:href="#m89553a92df" x="628.07145" y="387.798739" style="stroke: #000000; stroke-width: 0.8"/>
      </g>
     </g>
     <g id="text_21">
      <!-- 600 -->
      <g transform="translate(618.5277 402.396395) scale(0.1 -0.1)">
       <defs>
        <path id="DejaVuSans-19" d="M 2113 2584
Q 1688 2584 1439 2293
Q 1191 2003 1191 1497
Q 1191 994 1439 701
Q 1688 409 2113 409
Q 2538 409 2786 701
Q 3034 994 3034 1497
Q 3034 2003 2786 2293
Q 2538 2584 2113 2584
z
M 3366 4563
L 3366 3988
Q 3128 4100 2886 4159
Q 2644 4219 2406 4219
Q 1781 4219 1451 3797
Q 1122 3375 1075 2522
Q 1259 2794 1537 2939
Q 1816 3084 2150 3084
Q 2853 3084 3261 2657
Q 3669 2231 3669 1497
Q 3669 778 3244 343
Q 2819 -91 2113 -91
Q 1303 -91 875 529
Q 447 1150 447 2328
Q 447 3434 972 4092
Q 1497 4750 2381 4750
Q 2619 4750 2861 4703
Q 3103 4656 3366 4563
z
" transform="scale(0.015625)"/>
       </defs>
       <use xlink:href="#DejaVuSans-19"/>
       <use xlink:href="#DejaVuSans-13" transform="translate(63.625 0)"/>
       <use xlink:href="#DejaVuSans-13" transform="translate(127.25 0)"/>
      </g>
     </g>
    </g>
    <g id="text_22">
     <!-- Target frame index (not wall-clock detection time) -->
     <g transform="translate(259.155229 416.397176) scale(0.1 -0.1)">
      <defs>
       <path id="DejaVuSans-4a" d="M 2906 1791
Q 2906 2416 2648 2759
Q 2391 3103 1925 3103
Q 1463 3103 1205 2759
Q 947 2416 947 1791
Q 947 1169 1205 825
Q 1463 481 1925 481
Q 2391 481 2648 825
Q 2906 1169 2906 1791
z
M 3481 434
Q 3481 -459 3084 -895
Q 2688 -1331 1869 -1331
Q 1566 -1331 1297 -1286
Q 1028 -1241 775 -1147
L 775 -588
Q 1028 -725 1275 -790
Q 1522 -856 1778 -856
Q 2344 -856 2625 -561
Q 2906 -266 2906 331
L 2906 616
Q 2728 306 2450 153
Q 2172 0 1784 0
Q 1141 0 747 490
Q 353 981 353 1791
Q 353 2603 747 3093
Q 1141 3584 1784 3584
Q 2172 3584 2450 3431
Q 2728 3278 2906 2969
L 2906 3500
L 3481 3500
L 3481 434
z
" transform="scale(0.015625)"/>
       <path id="DejaVuSans-49" d="M 2375 4863
L 2375 4384
L 1825 4384
Q 1516 4384 1395 4259
Q 1275 4134 1275 3809
L 1275 3500
L 2222 3500
L 2222 3053
L 1275 3053
L 1275 0
L 697 0
L 697 3053
L 147 3053
L 147 3500
L 697 3500
L 697 3744
Q 697 4328 969 4595
Q 1241 4863 1831 4863
L 2375 4863
z
" transform="scale(0.015625)"/>
       <path id="DejaVuSans-4c" d="M 603 3500
L 1178 3500
L 1178 0
L 603 0
L 603 3500
z
M 603 4863
L 1178 4863
L 1178 4134
L 603 4134
L 603 4863
z
" transform="scale(0.015625)"/>
       <path id="DejaVuSans-5b" d="M 3513 3500
L 2247 1797
L 3578 0
L 2900 0
L 1881 1375
L 863 0
L 184 0
L 1544 1831
L 300 3500
L 978 3500
L 1906 2253
L 2834 3500
L 3513 3500
z
" transform="scale(0.015625)"/>
       <path id="DejaVuSans-b" d="M 1984 4856
Q 1566 4138 1362 3434
Q 1159 2731 1159 2009
Q 1159 1288 1364 580
Q 1569 -128 1984 -844
L 1484 -844
Q 1016 -109 783 600
Q 550 1309 550 2009
Q 550 2706 781 3412
Q 1013 4119 1484 4856
L 1984 4856
z
" transform="scale(0.015625)"/>
       <path id="DejaVuSans-5a" d="M 269 3500
L 844 3500
L 1563 769
L 2278 3500
L 2956 3500
L 3675 769
L 4391 3500
L 4966 3500
L 4050 0
L 3372 0
L 2619 2869
L 1863 0
L 1184 0
L 269 3500
z
" transform="scale(0.015625)"/>
       <path id="DejaVuSans-10" d="M 313 2009
L 1997 2009
L 1997 1497
L 313 1497
L 313 2009
z
" transform="scale(0.015625)"/>
       <path id="DejaVuSans-4e" d="M 581 4863
L 1159 4863
L 1159 1991
L 2875 3500
L 3609 3500
L 1753 1863
L 3688 0
L 2938 0
L 1159 1709
L 1159 0
L 581 0
L 581 4863
z
" transform="scale(0.015625)"/>
       <path id="DejaVuSans-c" d="M 513 4856
L 1013 4856
Q 1481 4119 1714 3412
Q 1947 2706 1947 2009
Q 1947 1309 1714 600
Q 1481 -109 1013 -844
L 513 -844
Q 928 -128 1133 580
Q 1338 1288 1338 2009
Q 1338 2731 1133 3434
Q 928 4138 513 4856
z
" transform="scale(0.015625)"/>
      </defs>
      <use xlink:href="#DejaVuSans-37"/>
      <use xlink:href="#DejaVuSans-44" transform="translate(44.53125 0)"/>
      <use xlink:href="#DejaVuSans-55" transform="translate(105.8125 0)"/>
      <use xlink:href="#DejaVuSans-4a" transform="translate(145.171875 0)"/>
      <use xlink:href="#DejaVuSans-48" transform="translate(208.65625 0)"/>
      <use xlink:href="#DejaVuSans-57" transform="translate(270.1875 0)"/>
      <use xlink:href="#DejaVuSans-3" transform="translate(309.390625 0)"/>
      <use xlink:href="#DejaVuSans-49" transform="translate(341.171875 0)"/>
      <use xlink:href="#DejaVuSans-55" transform="translate(376.375 0)"/>
      <use xlink:href="#DejaVuSans-44" transform="translate(417.484375 0)"/>
      <use xlink:href="#DejaVuSans-50" transform="translate(478.765625 0)"/>
      <use xlink:href="#DejaVuSans-48" transform="translate(576.171875 0)"/>
      <use xlink:href="#DejaVuSans-3" transform="translate(637.703125 0)"/>
      <use xlink:href="#DejaVuSans-4c" transform="translate(669.484375 0)"/>
      <use xlink:href="#DejaVuSans-51" transform="translate(697.265625 0)"/>
      <use xlink:href="#DejaVuSans-47" transform="translate(760.640625 0)"/>
      <use xlink:href="#DejaVuSans-48" transform="translate(824.125 0)"/>
      <use xlink:href="#DejaVuSans-5b" transform="translate(883.90625 0)"/>
      <use xlink:href="#DejaVuSans-3" transform="translate(943.09375 0)"/>
      <use xlink:href="#DejaVuSans-b" transform="translate(974.875 0)"/>
      <use xlink:href="#DejaVuSans-51" transform="translate(1013.890625 0)"/>
      <use xlink:href="#DejaVuSans-52" transform="translate(1077.265625 0)"/>
      <use xlink:href="#DejaVuSans-57" transform="translate(1138.453125 0)"/>
      <use xlink:href="#DejaVuSans-3" transform="translate(1177.65625 0)"/>
      <use xlink:href="#DejaVuSans-5a" transform="translate(1209.4375 0)"/>
      <use xlink:href="#DejaVuSans-44" transform="translate(1291.21875 0)"/>
      <use xlink:href="#DejaVuSans-4f" transform="translate(1352.5 0)"/>
      <use xlink:href="#DejaVuSans-4f" transform="translate(1380.28125 0)"/>
      <use xlink:href="#DejaVuSans-10" transform="translate(1408.0625 0)"/>
      <use xlink:href="#DejaVuSans-46" transform="translate(1444.140625 0)"/>
      <use xlink:href="#DejaVuSans-4f" transform="translate(1499.125 0)"/>
      <use xlink:href="#DejaVuSans-52" transform="translate(1526.90625 0)"/>
      <use xlink:href="#DejaVuSans-46" transform="translate(1588.09375 0)"/>
      <use xlink:href="#DejaVuSans-4e" transform="translate(1643.078125 0)"/>
      <use xlink:href="#DejaVuSans-3" transform="translate(1700.984375 0)"/>
      <use xlink:href="#DejaVuSans-47" transform="translate(1732.765625 0)"/>
      <use xlink:href="#DejaVuSans-48" transform="translate(1796.25 0)"/>
      <use xlink:href="#DejaVuSans-57" transform="translate(1857.78125 0)"/>
      <use xlink:href="#DejaVuSans-48" transform="translate(1896.984375 0)"/>
      <use xlink:href="#DejaVuSans-46" transform="translate(1958.515625 0)"/>
      <use xlink:href="#DejaVuSans-57" transform="translate(2013.5 0)"/>
      <use xlink:href="#DejaVuSans-4c" transform="translate(2052.703125 0)"/>
      <use xlink:href="#DejaVuSans-52" transform="translate(2080.484375 0)"/>
      <use xlink:href="#DejaVuSans-51" transform="translate(2141.671875 0)"/>
      <use xlink:href="#DejaVuSans-3" transform="translate(2205.046875 0)"/>
      <use xlink:href="#DejaVuSans-57" transform="translate(2236.828125 0)"/>
      <use xlink:href="#DejaVuSans-4c" transform="translate(2276.03125 0)"/>
      <use xlink:href="#DejaVuSans-50" transform="translate(2303.8125 0)"/>
      <use xlink:href="#DejaVuSans-48" transform="translate(2401.21875 0)"/>
      <use xlink:href="#DejaVuSans-c" transform="translate(2462.75 0)"/>
     </g>
    </g>
   </g>
   <g id="matplotlib.axis_6">
    <g id="ytick_9">
     <g id="line2d_38">
      <g>
       <use xlink:href="#m166a8c9874" x="47.2875" y="379.014219" style="stroke: #000000; stroke-width: 0.8"/>
      </g>
     </g>
     <g id="text_23">
      <!-- 0 -->
      <g transform="translate(33.925 382.813047) scale(0.1 -0.1)">
       <use xlink:href="#DejaVuSans-13"/>
      </g>
     </g>
    </g>
    <g id="ytick_10">
     <g id="line2d_39">
      <g>
       <use xlink:href="#m166a8c9874" x="47.2875" y="291.169018" style="stroke: #000000; stroke-width: 0.8"/>
      </g>
     </g>
     <g id="text_24">
      <!-- 1 -->
      <g transform="translate(33.925 294.967846) scale(0.1 -0.1)">
       <use xlink:href="#DejaVuSans-14"/>
      </g>
     </g>
    </g>
    <g id="text_25">
     <!-- GT / alarm -->
     <g transform="translate(27.522656 356.667327) rotate(-90) scale(0.1 -0.1)">
      <defs>
       <path id="DejaVuSans-2a" d="M 3809 666
L 3809 1919
L 2778 1919
L 2778 2438
L 4434 2438
L 4434 434
Q 4069 175 3628 42
Q 3188 -91 2688 -91
Q 1594 -91 976 548
Q 359 1188 359 2328
Q 359 3472 976 4111
Q 1594 4750 2688 4750
Q 3144 4750 3555 4637
Q 3966 4525 4313 4306
L 4313 3634
Q 3963 3931 3569 4081
Q 3175 4231 2741 4231
Q 1884 4231 1454 3753
Q 1025 3275 1025 2328
Q 1025 1384 1454 906
Q 1884 428 2741 428
Q 3075 428 3337 486
Q 3600 544 3809 666
z
" transform="scale(0.015625)"/>
       <path id="DejaVuSans-12" d="M 1625 4666
L 2156 4666
L 531 -594
L 0 -594
L 1625 4666
z
" transform="scale(0.015625)"/>
      </defs>
      <use xlink:href="#DejaVuSans-2a"/>
      <use xlink:href="#DejaVuSans-37" transform="translate(73.921875 0)"/>
      <use xlink:href="#DejaVuSans-3" transform="translate(135 0)"/>
      <use xlink:href="#DejaVuSans-12" transform="translate(166.78125 0)"/>
      <use xlink:href="#DejaVuSans-3" transform="translate(200.46875 0)"/>
      <use xlink:href="#DejaVuSans-44" transform="translate(232.25 0)"/>
      <use xlink:href="#DejaVuSans-4f" transform="translate(293.53125 0)"/>
      <use xlink:href="#DejaVuSans-44" transform="translate(321.3125 0)"/>
      <use xlink:href="#DejaVuSans-55" transform="translate(382.59375 0)"/>
      <use xlink:href="#DejaVuSans-50" transform="translate(421.953125 0)"/>
     </g>
    </g>
   </g>
   <g id="line2d_40">
    <path d="M 77.919865 291.169018
L 690.567155 291.169018
L 690.567155 291.169018
" clip-path="url(#pf2da5d8ea6)" style="fill: none; stroke: #b23b3b; stroke-width: 1.5; stroke-linecap: square"/>
   </g>
   <g id="line2d_41">
    <path d="M 77.919865 379.014219
L 466.624212 379.014219
L 466.624212 308.738058
L 469.464926 308.738058
L 469.464926 379.014219
L 482.721591 379.014219
L 482.721591 308.738058
L 485.562305 308.738058
L 485.562305 379.014219
L 690.567155 379.014219
L 690.567155 379.014219
" clip-path="url(#pf2da5d8ea6)" style="fill: none; stroke: #245b86; stroke-width: 1.5; stroke-linecap: square"/>
   </g>
   <g id="patch_10">
    <path d="M 47.2875 387.798739
L 47.2875 273.599978
" style="fill: none; stroke: #000000; stroke-width: 0.8; stroke-linejoin: miter; stroke-linecap: square"/>
   </g>
   <g id="patch_11">
    <path d="M 47.2875 387.798739
L 721.19952 387.798739
" style="fill: none; stroke: #000000; stroke-width: 0.8; stroke-linejoin: miter; stroke-linecap: square"/>
   </g>
   <g id="legend_3">
    <g id="line2d_42">
     <path d="M 612.80077 323.977483
L 616.80077 323.977483
L 616.80077 323.977483
L 624.80077 323.977483
L 624.80077 323.977483
L 628.80077 323.977483
" style="fill: none; stroke: #b23b3b; stroke-width: 1.5; stroke-linecap: square"/>
    </g>
    <g id="text_26">
     <!-- Binary ground truth -->
     <g transform="translate(635.20077 326.777483) scale(0.08 -0.08)">
      <defs>
       <path id="DejaVuSans-25" d="M 1259 2228
L 1259 519
L 2272 519
Q 2781 519 3026 730
Q 3272 941 3272 1375
Q 3272 1813 3026 2020
Q 2781 2228 2272 2228
L 1259 2228
z
M 1259 4147
L 1259 2741
L 2194 2741
Q 2656 2741 2882 2914
Q 3109 3088 3109 3444
Q 3109 3797 2882 3972
Q 2656 4147 2194 4147
L 1259 4147
z
M 628 4666
L 2241 4666
Q 2963 4666 3353 4366
Q 3744 4066 3744 3513
Q 3744 3084 3544 2831
Q 3344 2578 2956 2516
Q 3422 2416 3680 2098
Q 3938 1781 3938 1306
Q 3938 681 3513 340
Q 3088 0 2303 0
L 628 0
L 628 4666
z
" transform="scale(0.015625)"/>
       <path id="DejaVuSans-5c" d="M 2059 -325
Q 1816 -950 1584 -1140
Q 1353 -1331 966 -1331
L 506 -1331
L 506 -850
L 844 -850
Q 1081 -850 1212 -737
Q 1344 -625 1503 -206
L 1606 56
L 191 3500
L 800 3500
L 1894 763
L 2988 3500
L 3597 3500
L 2059 -325
z
" transform="scale(0.015625)"/>
      </defs>
      <use xlink:href="#DejaVuSans-25"/>
      <use xlink:href="#DejaVuSans-4c" transform="translate(68.609375 0)"/>
      <use xlink:href="#DejaVuSans-51" transform="translate(96.390625 0)"/>
      <use xlink:href="#DejaVuSans-44" transform="translate(159.765625 0)"/>
      <use xlink:href="#DejaVuSans-55" transform="translate(221.046875 0)"/>
      <use xlink:href="#DejaVuSans-5c" transform="translate(262.15625 0)"/>
      <use xlink:href="#DejaVuSans-3" transform="translate(321.34375 0)"/>
      <use xlink:href="#DejaVuSans-4a" transform="translate(353.125 0)"/>
      <use xlink:href="#DejaVuSans-55" transform="translate(416.609375 0)"/>
      <use xlink:href="#DejaVuSans-52" transform="translate(455.515625 0)"/>
      <use xlink:href="#DejaVuSans-58" transform="translate(516.703125 0)"/>
      <use xlink:href="#DejaVuSans-51" transform="translate(580.078125 0)"/>
      <use xlink:href="#DejaVuSans-47" transform="translate(643.453125 0)"/>
      <use xlink:href="#DejaVuSans-3" transform="translate(706.9375 0)"/>
      <use xlink:href="#DejaVuSans-57" transform="translate(738.71875 0)"/>
      <use xlink:href="#DejaVuSans-55" transform="translate(777.921875 0)"/>
      <use xlink:href="#DejaVuSans-58" transform="translate(819.03125 0)"/>
      <use xlink:href="#DejaVuSans-57" transform="translate(882.40625 0)"/>
      <use xlink:href="#DejaVuSans-4b" transform="translate(921.609375 0)"/>
     </g>
    </g>
    <g id="line2d_43">
     <path d="M 612.80077 335.978108
L 616.80077 335.978108
L 616.80077 335.978108
L 624.80077 335.978108
L 624.80077 335.978108
L 628.80077 335.978108
" style="fill: none; stroke: #245b86; stroke-width: 1.5; stroke-linecap: square"/>
    </g>
    <g id="text_27">
     <!-- 3-frame alarm -->
     <g transform="translate(635.20077 338.778108) scale(0.08 -0.08)">
      <use xlink:href="#DejaVuSans-16"/>
      <use xlink:href="#DejaVuSans-10" transform="translate(63.625 0)"/>
      <use xlink:href="#DejaVuSans-49" transform="translate(99.703125 0)"/>
      <use xlink:href="#DejaVuSans-55" transform="translate(134.90625 0)"/>
      <use xlink:href="#DejaVuSans-44" transform="translate(176.015625 0)"/>
      <use xlink:href="#DejaVuSans-50" transform="translate(237.296875 0)"/>
      <use xlink:href="#DejaVuSans-48" transform="translate(334.703125 0)"/>
      <use xlink:href="#DejaVuSans-3" transform="translate(396.234375 0)"/>
      <use xlink:href="#DejaVuSans-44" transform="translate(428.015625 0)"/>
      <use xlink:href="#DejaVuSans-4f" transform="translate(489.296875 0)"/>
      <use xlink:href="#DejaVuSans-44" transform="translate(517.078125 0)"/>
      <use xlink:href="#DejaVuSans-55" transform="translate(578.359375 0)"/>
      <use xlink:href="#DejaVuSans-50" transform="translate(617.71875 0)"/>
     </g>
    </g>
   </g>
  </g>
  <g id="text_28">
   <!-- DINOv3-L / R03 test 03 / online / seed 0 -->
   <g transform="translate(235.171713 17.077969) scale(0.13 -0.13)">
    <defs>
     <path id="DejaVuSans-27" d="M 1259 4147
L 1259 519
L 2022 519
Q 2988 519 3436 956
Q 3884 1394 3884 2338
Q 3884 3275 3436 3711
Q 2988 4147 2022 4147
L 1259 4147
z
M 628 4666
L 1925 4666
Q 3281 4666 3915 4102
Q 4550 3538 4550 2338
Q 4550 1131 3912 565
Q 3275 0 1925 0
L 628 0
L 628 4666
z
" transform="scale(0.015625)"/>
     <path id="DejaVuSans-2c" d="M 628 4666
L 1259 4666
L 1259 0
L 628 0
L 628 4666
z
" transform="scale(0.015625)"/>
     <path id="DejaVuSans-32" d="M 2522 4238
Q 1834 4238 1429 3725
Q 1025 3213 1025 2328
Q 1025 1447 1429 934
Q 1834 422 2522 422
Q 3209 422 3611 934
Q 4013 1447 4013 2328
Q 4013 3213 3611 3725
Q 3209 4238 2522 4238
z
M 2522 4750
Q 3503 4750 4090 4092
Q 4678 3434 4678 2328
Q 4678 1225 4090 567
Q 3503 -91 2522 -91
Q 1538 -91 948 565
Q 359 1222 359 2328
Q 359 3434 948 4092
Q 1538 4750 2522 4750
z
" transform="scale(0.015625)"/>
     <path id="DejaVuSans-59" d="M 191 3500
L 800 3500
L 1894 563
L 2988 3500
L 3597 3500
L 2284 0
L 1503 0
L 191 3500
z
" transform="scale(0.015625)"/>
     <path id="DejaVuSans-2f" d="M 628 4666
L 1259 4666
L 1259 531
L 3531 531
L 3531 0
L 628 0
L 628 4666
z
" transform="scale(0.015625)"/>
     <path id="DejaVuSans-35" d="M 2841 2188
Q 3044 2119 3236 1894
Q 3428 1669 3622 1275
L 4263 0
L 3584 0
L 2988 1197
Q 2756 1666 2539 1819
Q 2322 1972 1947 1972
L 1259 1972
L 1259 0
L 628 0
L 628 4666
L 2053 4666
Q 2853 4666 3247 4331
Q 3641 3997 3641 3322
Q 3641 2881 3436 2590
Q 3231 2300 2841 2188
z
M 1259 4147
L 1259 2491
L 2053 2491
Q 2509 2491 2742 2702
Q 2975 2913 2975 3322
Q 2975 3731 2742 3939
Q 2509 4147 2053 4147
L 1259 4147
z
" transform="scale(0.015625)"/>
    </defs>
    <use xlink:href="#DejaVuSans-27"/>
    <use xlink:href="#DejaVuSans-2c" transform="translate(77 0)"/>
    <use xlink:href="#DejaVuSans-31" transform="translate(106.5 0)"/>
    <use xlink:href="#DejaVuSans-32" transform="translate(181.3125 0)"/>
    <use xlink:href="#DejaVuSans-59" transform="translate(260.03125 0)"/>
    <use xlink:href="#DejaVuSans-16" transform="translate(319.21875 0)"/>
    <use xlink:href="#DejaVuSans-10" transform="translate(382.84375 0)"/>
    <use xlink:href="#DejaVuSans-2f" transform="translate(418.921875 0)"/>
    <use xlink:href="#DejaVuSans-3" transform="translate(474.640625 0)"/>
    <use xlink:href="#DejaVuSans-12" transform="translate(506.421875 0)"/>
    <use xlink:href="#DejaVuSans-3" transform="translate(540.109375 0)"/>
    <use xlink:href="#DejaVuSans-35" transform="translate(571.890625 0)"/>
    <use xlink:href="#DejaVuSans-13" transform="translate(641.375 0)"/>
    <use xlink:href="#DejaVuSans-16" transform="translate(705 0)"/>
    <use xlink:href="#DejaVuSans-3" transform="translate(768.625 0)"/>
    <use xlink:href="#DejaVuSans-57" transform="translate(800.40625 0)"/>
    <use xlink:href="#DejaVuSans-48" transform="translate(839.609375 0)"/>
    <use xlink:href="#DejaVuSans-56" transform="translate(901.140625 0)"/>
    <use xlink:href="#DejaVuSans-57" transform="translate(953.234375 0)"/>
    <use xlink:href="#DejaVuSans-3" transform="translate(992.4375 0)"/>
    <use xlink:href="#DejaVuSans-13" transform="translate(1024.21875 0)"/>
    <use xlink:href="#DejaVuSans-16" transform="translate(1087.84375 0)"/>
    <use xlink:href="#DejaVuSans-3" transform="translate(1151.46875 0)"/>
    <use xlink:href="#DejaVuSans-12" transform="translate(1183.25 0)"/>
    <use xlink:href="#DejaVuSans-3" transform="translate(1216.9375 0)"/>
    <use xlink:href="#DejaVuSans-52" transform="translate(1248.71875 0)"/>
    <use xlink:href="#DejaVuSans-51" transform="translate(1309.90625 0)"/>
    <use xlink:href="#DejaVuSans-4f" transform="translate(1373.28125 0)"/>
    <use xlink:href="#DejaVuSans-4c" transform="translate(1401.0625 0)"/>
    <use xlink:href="#DejaVuSans-51" transform="translate(1428.84375 0)"/>
    <use xlink:href="#DejaVuSans-48" transform="translate(1492.21875 0)"/>
    <use xlink:href="#DejaVuSans-3" transform="translate(1553.75 0)"/>
    <use xlink:href="#DejaVuSans-12" transform="translate(1585.53125 0)"/>
    <use xlink:href="#DejaVuSans-3" transform="translate(1619.21875 0)"/>
    <use xlink:href="#DejaVuSans-56" transform="translate(1651 0)"/>
    <use xlink:href="#DejaVuSans-48" transform="translate(1703.09375 0)"/>
    <use xlink:href="#DejaVuSans-48" transform="translate(1764.625 0)"/>
    <use xlink:href="#DejaVuSans-47" transform="translate(1826.15625 0)"/>
    <use xlink:href="#DejaVuSans-3" transform="translate(1889.640625 0)"/>
    <use xlink:href="#DejaVuSans-13" transform="translate(1921.421875 0)"/>
   </g>
  </g>
  <g id="text_29">
   <!-- Source: P3/03.csv and normal_fit.json. Scores on common valid frames; wall-clock queue/lookahead delay has not been benchmarked. -->
   <g transform="translate(18.59976 438.50376) scale(0.08 -0.08)">
    <defs>
     <path id="DejaVuSans-36" d="M 3425 4513
L 3425 3897
Q 3066 4069 2747 4153
Q 2428 4238 2131 4238
Q 1616 4238 1336 4038
Q 1056 3838 1056 3469
Q 1056 3159 1242 3001
Q 1428 2844 1947 2747
L 2328 2669
Q 3034 2534 3370 2195
Q 3706 1856 3706 1288
Q 3706 609 3251 259
Q 2797 -91 1919 -91
Q 1588 -91 1214 -16
Q 841 59 441 206
L 441 856
Q 825 641 1194 531
Q 1563 422 1919 422
Q 2459 422 2753 634
Q 3047 847 3047 1241
Q 3047 1584 2836 1778
Q 2625 1972 2144 2069
L 1759 2144
Q 1053 2284 737 2584
Q 422 2884 422 3419
Q 422 4038 858 4394
Q 1294 4750 2059 4750
Q 2388 4750 2728 4690
Q 3069 4631 3425 4513
z
" transform="scale(0.015625)"/>
     <path id="DejaVuSans-1d" d="M 750 794
L 1409 794
L 1409 0
L 750 0
L 750 794
z
M 750 3309
L 1409 3309
L 1409 2516
L 750 2516
L 750 3309
z
" transform="scale(0.015625)"/>
     <path id="DejaVuSans-11" d="M 684 794
L 1344 794
L 1344 0
L 684 0
L 684 794
z
" transform="scale(0.015625)"/>
     <path id="DejaVuSans-42" d="M 3263 -1063
L 3263 -1509
L -63 -1509
L -63 -1063
L 3263 -1063
z
" transform="scale(0.015625)"/>
     <path id="DejaVuSans-13af" d="M 3431 3500
L 3431 0
L 2853 0
L 2853 3053
L 1275 3053
L 1275 0
L 697 0
L 697 3053
L 147 3053
L 147 3500
L 697 3500
L 697 3744
Q 697 4316 967 4589
Q 1238 4863 1797 4863
L 2375 4863
L 2375 4384
L 1825 4384
Q 1516 4384 1395 4259
Q 1275 4134 1275 3809
L 1275 3500
L 3431 3500
z
M 2853 4856
L 3431 4856
L 3431 4128
L 2853 4128
L 2853 4856
z
" transform="scale(0.015625)"/>
     <path id="DejaVuSans-4d" d="M 603 3500
L 1178 3500
L 1178 -63
Q 1178 -731 923 -1031
Q 669 -1331 103 -1331
L -116 -1331
L -116 -844
L 38 -844
Q 366 -844 484 -692
Q 603 -541 603 -63
L 603 3500
z
M 603 4863
L 1178 4863
L 1178 4134
L 603 4134
L 603 4863
z
" transform="scale(0.015625)"/>
     <path id="DejaVuSans-1e" d="M 750 3309
L 1409 3309
L 1409 2516
L 750 2516
L 750 3309
z
M 750 794
L 1409 794
L 1409 256
L 897 -744
L 494 -744
L 750 256
L 750 794
z
" transform="scale(0.015625)"/>
    </defs>
    <use xlink:href="#DejaVuSans-36"/>
    <use xlink:href="#DejaVuSans-52" transform="translate(63.484375 0)"/>
    <use xlink:href="#DejaVuSans-58" transform="translate(124.671875 0)"/>
    <use xlink:href="#DejaVuSans-55" transform="translate(188.046875 0)"/>
    <use xlink:href="#DejaVuSans-46" transform="translate(226.953125 0)"/>
    <use xlink:href="#DejaVuSans-48" transform="translate(281.9375 0)"/>
    <use xlink:href="#DejaVuSans-1d" transform="translate(343.46875 0)"/>
    <use xlink:href="#DejaVuSans-3" transform="translate(377.15625 0)"/>
    <use xlink:href="#DejaVuSans-33" transform="translate(408.9375 0)"/>
    <use xlink:href="#DejaVuSans-16" transform="translate(469.234375 0)"/>
    <use xlink:href="#DejaVuSans-12" transform="translate(532.859375 0)"/>
    <use xlink:href="#DejaVuSans-13" transform="translate(566.546875 0)"/>
    <use xlink:href="#DejaVuSans-16" transform="translate(630.171875 0)"/>
    <use xlink:href="#DejaVuSans-11" transform="translate(693.796875 0)"/>
    <use xlink:href="#DejaVuSans-46" transform="translate(725.578125 0)"/>
    <use xlink:href="#DejaVuSans-56" transform="translate(780.5625 0)"/>
    <use xlink:href="#DejaVuSans-59" transform="translate(832.65625 0)"/>
    <use xlink:href="#DejaVuSans-3" transform="translate(891.84375 0)"/>
    <use xlink:href="#DejaVuSans-44" transform="translate(923.625 0)"/>
    <use xlink:href="#DejaVuSans-51" transform="translate(984.90625 0)"/>
    <use xlink:href="#DejaVuSans-47" transform="translate(1048.28125 0)"/>
    <use xlink:href="#DejaVuSans-3" transform="translate(1111.765625 0)"/>
    <use xlink:href="#DejaVuSans-51" transform="translate(1143.546875 0)"/>
    <use xlink:href="#DejaVuSans-52" transform="translate(1206.921875 0)"/>
    <use xlink:href="#DejaVuSans-55" transform="translate(1268.109375 0)"/>
    <use xlink:href="#DejaVuSans-50" transform="translate(1307.46875 0)"/>
    <use xlink:href="#DejaVuSans-44" transform="translate(1404.875 0)"/>
    <use xlink:href="#DejaVuSans-4f" transform="translate(1466.15625 0)"/>
    <use xlink:href="#DejaVuSans-42" transform="translate(1493.9375 0)"/>
    <use xlink:href="#DejaVuSans-13af" transform="translate(1543.9375 0)"/>
    <use xlink:href="#DejaVuSans-57" transform="translate(1606.921875 0)"/>
    <use xlink:href="#DejaVuSans-11" transform="translate(1646.125 0)"/>
    <use xlink:href="#DejaVuSans-4d" transform="translate(1677.90625 0)"/>
    <use xlink:href="#DejaVuSans-56" transform="translate(1705.6875 0)"/>
    <use xlink:href="#DejaVuSans-52" transform="translate(1757.78125 0)"/>
    <use xlink:href="#DejaVuSans-51" transform="translate(1818.96875 0)"/>
    <use xlink:href="#DejaVuSans-11" transform="translate(1882.34375 0)"/>
    <use xlink:href="#DejaVuSans-3" transform="translate(1914.125 0)"/>
    <use xlink:href="#DejaVuSans-36" transform="translate(1945.90625 0)"/>
    <use xlink:href="#DejaVuSans-46" transform="translate(2009.390625 0)"/>
    <use xlink:href="#DejaVuSans-52" transform="translate(2064.375 0)"/>
    <use xlink:href="#DejaVuSans-55" transform="translate(2125.5625 0)"/>
    <use xlink:href="#DejaVuSans-48" transform="translate(2164.46875 0)"/>
    <use xlink:href="#DejaVuSans-56" transform="translate(2226 0)"/>
    <use xlink:href="#DejaVuSans-3" transform="translate(2278.09375 0)"/>
    <use xlink:href="#DejaVuSans-52" transform="translate(2309.875 0)"/>
    <use xlink:href="#DejaVuSans-51" transform="translate(2371.0625 0)"/>
    <use xlink:href="#DejaVuSans-3" transform="translate(2434.4375 0)"/>
    <use xlink:href="#DejaVuSans-46" transform="translate(2466.21875 0)"/>
    <use xlink:href="#DejaVuSans-52" transform="translate(2521.203125 0)"/>
    <use xlink:href="#DejaVuSans-50" transform="translate(2582.390625 0)"/>
    <use xlink:href="#DejaVuSans-50" transform="translate(2679.796875 0)"/>
    <use xlink:href="#DejaVuSans-52" transform="translate(2777.203125 0)"/>
    <use xlink:href="#DejaVuSans-51" transform="translate(2838.390625 0)"/>
    <use xlink:href="#DejaVuSans-3" transform="translate(2901.765625 0)"/>
    <use xlink:href="#DejaVuSans-59" transform="translate(2933.546875 0)"/>
    <use xlink:href="#DejaVuSans-44" transform="translate(2992.734375 0)"/>
    <use xlink:href="#DejaVuSans-4f" transform="translate(3054.015625 0)"/>
    <use xlink:href="#DejaVuSans-4c" transform="translate(3081.796875 0)"/>
    <use xlink:href="#DejaVuSans-47" transform="translate(3109.578125 0)"/>
    <use xlink:href="#DejaVuSans-3" transform="translate(3173.0625 0)"/>
    <use xlink:href="#DejaVuSans-49" transform="translate(3204.84375 0)"/>
    <use xlink:href="#DejaVuSans-55" transform="translate(3240.046875 0)"/>
    <use xlink:href="#DejaVuSans-44" transform="translate(3281.15625 0)"/>
    <use xlink:href="#DejaVuSans-50" transform="translate(3342.4375 0)"/>
    <use xlink:href="#DejaVuSans-48" transform="translate(3439.84375 0)"/>
    <use xlink:href="#DejaVuSans-56" transform="translate(3501.375 0)"/>
    <use xlink:href="#DejaVuSans-1e" transform="translate(3553.46875 0)"/>
    <use xlink:href="#DejaVuSans-3" transform="translate(3587.15625 0)"/>
    <use xlink:href="#DejaVuSans-5a" transform="translate(3618.9375 0)"/>
    <use xlink:href="#DejaVuSans-44" transform="translate(3700.71875 0)"/>
    <use xlink:href="#DejaVuSans-4f" transform="translate(3762 0)"/>
    <use xlink:href="#DejaVuSans-4f" transform="translate(3789.78125 0)"/>
    <use xlink:href="#DejaVuSans-10" transform="translate(3817.5625 0)"/>
    <use xlink:href="#DejaVuSans-46" transform="translate(3853.640625 0)"/>
    <use xlink:href="#DejaVuSans-4f" transform="translate(3908.625 0)"/>
    <use xlink:href="#DejaVuSans-52" transform="translate(3936.40625 0)"/>
    <use xlink:href="#DejaVuSans-46" transform="translate(3997.59375 0)"/>
    <use xlink:href="#DejaVuSans-4e" transform="translate(4052.578125 0)"/>
    <use xlink:href="#DejaVuSans-3" transform="translate(4110.484375 0)"/>
    <use xlink:href="#DejaVuSans-54" transform="translate(4142.265625 0)"/>
    <use xlink:href="#DejaVuSans-58" transform="translate(4205.75 0)"/>
    <use xlink:href="#DejaVuSans-48" transform="translate(4269.125 0)"/>
    <use xlink:href="#DejaVuSans-58" transform="translate(4330.65625 0)"/>
    <use xlink:href="#DejaVuSans-48" transform="translate(4394.03125 0)"/>
    <use xlink:href="#DejaVuSans-12" transform="translate(4455.5625 0)"/>
    <use xlink:href="#DejaVuSans-4f" transform="translate(4489.25 0)"/>
    <use xlink:href="#DejaVuSans-52" transform="translate(4517.03125 0)"/>
    <use xlink:href="#DejaVuSans-52" transform="translate(4578.21875 0)"/>
    <use xlink:href="#DejaVuSans-4e" transform="translate(4639.40625 0)"/>
    <use xlink:href="#DejaVuSans-44" transform="translate(4695.5625 0)"/>
    <use xlink:href="#DejaVuSans-4b" transform="translate(4756.84375 0)"/>
    <use xlink:href="#DejaVuSans-48" transform="translate(4820.21875 0)"/>
    <use xlink:href="#DejaVuSans-44" transform="translate(4881.75 0)"/>
    <use xlink:href="#DejaVuSans-47" transform="translate(4943.03125 0)"/>
    <use xlink:href="#DejaVuSans-3" transform="translate(5006.515625 0)"/>
    <use xlink:href="#DejaVuSans-47" transform="translate(5038.296875 0)"/>
    <use xlink:href="#DejaVuSans-48" transform="translate(5101.78125 0)"/>
    <use xlink:href="#DejaVuSans-4f" transform="translate(5163.3125 0)"/>
    <use xlink:href="#DejaVuSans-44" transform="translate(5191.09375 0)"/>
    <use xlink:href="#DejaVuSans-5c" transform="translate(5252.375 0)"/>
    <use xlink:href="#DejaVuSans-3" transform="translate(5311.5625 0)"/>
    <use xlink:href="#DejaVuSans-4b" transform="translate(5343.34375 0)"/>
    <use xlink:href="#DejaVuSans-44" transform="translate(5406.71875 0)"/>
    <use xlink:href="#DejaVuSans-56" transform="translate(5468 0)"/>
    <use xlink:href="#DejaVuSans-3" transform="translate(5520.09375 0)"/>
    <use xlink:href="#DejaVuSans-51" transform="translate(5551.875 0)"/>
    <use xlink:href="#DejaVuSans-52" transform="translate(5615.25 0)"/>
    <use xlink:href="#DejaVuSans-57" transform="translate(5676.4375 0)"/>
    <use xlink:href="#DejaVuSans-3" transform="translate(5715.640625 0)"/>
    <use xlink:href="#DejaVuSans-45" transform="translate(5747.421875 0)"/>
    <use xlink:href="#DejaVuSans-48" transform="translate(5810.90625 0)"/>
    <use xlink:href="#DejaVuSans-48" transform="translate(5872.4375 0)"/>
    <use xlink:href="#DejaVuSans-51" transform="translate(5933.96875 0)"/>
    <use xlink:href="#DejaVuSans-3" transform="translate(5997.34375 0)"/>
    <use xlink:href="#DejaVuSans-45" transform="translate(6029.125 0)"/>
    <use xlink:href="#DejaVuSans-48" transform="translate(6092.609375 0)"/>
    <use xlink:href="#DejaVuSans-51" transform="translate(6154.140625 0)"/>
    <use xlink:href="#DejaVuSans-46" transform="translate(6217.515625 0)"/>
    <use xlink:href="#DejaVuSans-4b" transform="translate(6272.5 0)"/>
    <use xlink:href="#DejaVuSans-50" transform="translate(6335.875 0)"/>
    <use xlink:href="#DejaVuSans-44" transform="translate(6433.28125 0)"/>
    <use xlink:href="#DejaVuSans-55" transform="translate(6494.5625 0)"/>
    <use xlink:href="#DejaVuSans-4e" transform="translate(6535.671875 0)"/>
    <use xlink:href="#DejaVuSans-48" transform="translate(6590.015625 0)"/>
    <use xlink:href="#DejaVuSans-47" transform="translate(6651.546875 0)"/>
    <use xlink:href="#DejaVuSans-11" transform="translate(6715.03125 0)"/>
   </g>
  </g>
 </g>
 <defs>
  <clipPath id="p75b31c00cb">
   <rect x="47.2875" y="26.201496" width="673.91202" height="114.198761"/>
  </clipPath>
  <clipPath id="pb65d46646e">
   <rect x="47.2875" y="149.900737" width="673.91202" height="114.198761"/>
  </clipPath>
  <clipPath id="pf2da5d8ea6">
   <rect x="47.2875" y="273.599978" width="673.91202" height="114.198761"/>
  </clipPath>
 </defs>
</svg>
